<mxfile host="Electron" modified="2025-03-14T07:07:36.540Z" agent="Mozilla/5.0 (Windows NT 10.0; Win64; x64) AppleWebKit/537.36 (KHTML, like Gecko) draw.io/23.1.5 Chrome/120.0.6099.109 Electron/28.1.0 Safari/537.36" etag="NqseSQ4gS9s2asMIImw3" version="23.1.5" type="device" pages="4">
  <diagram name="Концептуальная модель" id="h8Y66cCj29whxQ02DrhW">
    <mxGraphModel dx="1015" dy="625" grid="1" gridSize="10" guides="1" tooltips="1" connect="1" arrows="1" fold="1" page="1" pageScale="1" pageWidth="850" pageHeight="1100" math="0" shadow="0" extFonts="Permanent Marker^https://fonts.googleapis.com/css?family=Permanent+Marker">
      <root>
        <mxCell id="m2vKKXtNSI7ji9uUZiZX-0" />
        <mxCell id="m2vKKXtNSI7ji9uUZiZX-1" parent="m2vKKXtNSI7ji9uUZiZX-0" />
        <mxCell id="m2vKKXtNSI7ji9uUZiZX-2" style="edgeStyle=orthogonalEdgeStyle;rounded=0;orthogonalLoop=1;jettySize=auto;html=1;entryX=0;entryY=0.5;entryDx=0;entryDy=0;startArrow=ERmandOne;startFill=0;endArrow=ERzeroToMany;endFill=0;" edge="1" parent="m2vKKXtNSI7ji9uUZiZX-1" source="m2vKKXtNSI7ji9uUZiZX-3" target="m2vKKXtNSI7ji9uUZiZX-11">
          <mxGeometry relative="1" as="geometry" />
        </mxCell>
        <mxCell id="NdSL9Rmww-Mmex19e4qj-4" style="edgeStyle=orthogonalEdgeStyle;rounded=0;orthogonalLoop=1;jettySize=auto;html=1;entryX=0.5;entryY=0;entryDx=0;entryDy=0;endArrow=ERzeroToMany;endFill=0;startArrow=ERmandOne;startFill=0;" edge="1" parent="m2vKKXtNSI7ji9uUZiZX-1" source="m2vKKXtNSI7ji9uUZiZX-3" target="m2vKKXtNSI7ji9uUZiZX-10">
          <mxGeometry relative="1" as="geometry" />
        </mxCell>
        <mxCell id="m2vKKXtNSI7ji9uUZiZX-3" value="Игрок" style="shape=table;startSize=30;container=1;collapsible=1;childLayout=tableLayout;fixedRows=1;rowLines=0;fontStyle=1;align=center;resizeLast=1;html=1;" vertex="1" parent="m2vKKXtNSI7ji9uUZiZX-1">
          <mxGeometry x="120" y="30" width="90" height="90" as="geometry" />
        </mxCell>
        <mxCell id="m2vKKXtNSI7ji9uUZiZX-4" value="" style="shape=tableRow;horizontal=0;startSize=0;swimlaneHead=0;swimlaneBody=0;fillColor=none;collapsible=0;dropTarget=0;points=[[0,0.5],[1,0.5]];portConstraint=eastwest;top=0;left=0;right=0;bottom=1;" vertex="1" parent="m2vKKXtNSI7ji9uUZiZX-3">
          <mxGeometry y="30" width="90" height="30" as="geometry" />
        </mxCell>
        <mxCell id="m2vKKXtNSI7ji9uUZiZX-5" value="PK" style="shape=partialRectangle;connectable=0;fillColor=none;top=0;left=0;bottom=0;right=0;fontStyle=1;overflow=hidden;whiteSpace=wrap;html=1;" vertex="1" parent="m2vKKXtNSI7ji9uUZiZX-4">
          <mxGeometry width="30" height="30" as="geometry">
            <mxRectangle width="30" height="30" as="alternateBounds" />
          </mxGeometry>
        </mxCell>
        <mxCell id="m2vKKXtNSI7ji9uUZiZX-6" value="Логин" style="shape=partialRectangle;connectable=0;fillColor=none;top=0;left=0;bottom=0;right=0;align=left;spacingLeft=6;fontStyle=5;overflow=hidden;whiteSpace=wrap;html=1;" vertex="1" parent="m2vKKXtNSI7ji9uUZiZX-4">
          <mxGeometry x="30" width="60" height="30" as="geometry">
            <mxRectangle width="60" height="30" as="alternateBounds" />
          </mxGeometry>
        </mxCell>
        <mxCell id="m2vKKXtNSI7ji9uUZiZX-7" value="" style="shape=tableRow;horizontal=0;startSize=0;swimlaneHead=0;swimlaneBody=0;fillColor=none;collapsible=0;dropTarget=0;points=[[0,0.5],[1,0.5]];portConstraint=eastwest;top=0;left=0;right=0;bottom=0;" vertex="1" parent="m2vKKXtNSI7ji9uUZiZX-3">
          <mxGeometry y="60" width="90" height="30" as="geometry" />
        </mxCell>
        <mxCell id="m2vKKXtNSI7ji9uUZiZX-8" value="" style="shape=partialRectangle;connectable=0;fillColor=none;top=0;left=0;bottom=0;right=0;editable=1;overflow=hidden;whiteSpace=wrap;html=1;" vertex="1" parent="m2vKKXtNSI7ji9uUZiZX-7">
          <mxGeometry width="30" height="30" as="geometry">
            <mxRectangle width="30" height="30" as="alternateBounds" />
          </mxGeometry>
        </mxCell>
        <mxCell id="m2vKKXtNSI7ji9uUZiZX-9" value="Регион" style="shape=partialRectangle;connectable=0;fillColor=none;top=0;left=0;bottom=0;right=0;align=left;spacingLeft=6;overflow=hidden;whiteSpace=wrap;html=1;" vertex="1" parent="m2vKKXtNSI7ji9uUZiZX-7">
          <mxGeometry x="30" width="60" height="30" as="geometry">
            <mxRectangle width="60" height="30" as="alternateBounds" />
          </mxGeometry>
        </mxCell>
        <mxCell id="m2vKKXtNSI7ji9uUZiZX-10" value="Персонаж" style="shape=table;startSize=30;container=1;collapsible=1;childLayout=tableLayout;fixedRows=1;rowLines=0;fontStyle=1;align=center;resizeLast=1;html=1;whiteSpace=wrap;" vertex="1" parent="m2vKKXtNSI7ji9uUZiZX-1">
          <mxGeometry x="390" y="100" width="190" height="120" as="geometry" />
        </mxCell>
        <mxCell id="m2vKKXtNSI7ji9uUZiZX-14" value="" style="shape=tableRow;horizontal=0;startSize=0;swimlaneHead=0;swimlaneBody=0;fillColor=none;collapsible=0;dropTarget=0;points=[[0,0.5],[1,0.5]];portConstraint=eastwest;top=0;left=0;right=0;bottom=1;html=1;" vertex="1" parent="m2vKKXtNSI7ji9uUZiZX-10">
          <mxGeometry y="30" width="190" height="30" as="geometry" />
        </mxCell>
        <mxCell id="m2vKKXtNSI7ji9uUZiZX-15" value="PK" style="shape=partialRectangle;connectable=0;fillColor=none;top=0;left=0;bottom=0;right=0;fontStyle=1;overflow=hidden;html=1;whiteSpace=wrap;" vertex="1" parent="m2vKKXtNSI7ji9uUZiZX-14">
          <mxGeometry width="60" height="30" as="geometry">
            <mxRectangle width="60" height="30" as="alternateBounds" />
          </mxGeometry>
        </mxCell>
        <mxCell id="m2vKKXtNSI7ji9uUZiZX-16" value="Имя персонажа" style="shape=partialRectangle;connectable=0;fillColor=none;top=0;left=0;bottom=0;right=0;align=left;spacingLeft=6;fontStyle=5;overflow=hidden;html=1;whiteSpace=wrap;" vertex="1" parent="m2vKKXtNSI7ji9uUZiZX-14">
          <mxGeometry x="60" width="130" height="30" as="geometry">
            <mxRectangle width="130" height="30" as="alternateBounds" />
          </mxGeometry>
        </mxCell>
        <mxCell id="m2vKKXtNSI7ji9uUZiZX-20" value="" style="shape=tableRow;horizontal=0;startSize=0;swimlaneHead=0;swimlaneBody=0;fillColor=none;collapsible=0;dropTarget=0;points=[[0,0.5],[1,0.5]];portConstraint=eastwest;top=0;left=0;right=0;bottom=0;html=1;" vertex="1" parent="m2vKKXtNSI7ji9uUZiZX-10">
          <mxGeometry y="60" width="190" height="30" as="geometry" />
        </mxCell>
        <mxCell id="m2vKKXtNSI7ji9uUZiZX-21" value="" style="shape=partialRectangle;connectable=0;fillColor=none;top=0;left=0;bottom=0;right=0;editable=1;overflow=hidden;html=1;whiteSpace=wrap;" vertex="1" parent="m2vKKXtNSI7ji9uUZiZX-20">
          <mxGeometry width="60" height="30" as="geometry">
            <mxRectangle width="60" height="30" as="alternateBounds" />
          </mxGeometry>
        </mxCell>
        <mxCell id="m2vKKXtNSI7ji9uUZiZX-22" value="Здоровье" style="shape=partialRectangle;connectable=0;fillColor=none;top=0;left=0;bottom=0;right=0;align=left;spacingLeft=6;overflow=hidden;html=1;whiteSpace=wrap;" vertex="1" parent="m2vKKXtNSI7ji9uUZiZX-20">
          <mxGeometry x="60" width="130" height="30" as="geometry">
            <mxRectangle width="130" height="30" as="alternateBounds" />
          </mxGeometry>
        </mxCell>
        <mxCell id="m2vKKXtNSI7ji9uUZiZX-23" style="shape=tableRow;horizontal=0;startSize=0;swimlaneHead=0;swimlaneBody=0;fillColor=none;collapsible=0;dropTarget=0;points=[[0,0.5],[1,0.5]];portConstraint=eastwest;top=0;left=0;right=0;bottom=0;html=1;" vertex="1" parent="m2vKKXtNSI7ji9uUZiZX-10">
          <mxGeometry y="90" width="190" height="30" as="geometry" />
        </mxCell>
        <mxCell id="m2vKKXtNSI7ji9uUZiZX-24" style="shape=partialRectangle;connectable=0;fillColor=none;top=0;left=0;bottom=0;right=0;editable=1;overflow=hidden;html=1;whiteSpace=wrap;" vertex="1" parent="m2vKKXtNSI7ji9uUZiZX-23">
          <mxGeometry width="60" height="30" as="geometry">
            <mxRectangle width="60" height="30" as="alternateBounds" />
          </mxGeometry>
        </mxCell>
        <mxCell id="m2vKKXtNSI7ji9uUZiZX-25" value="Мана" style="shape=partialRectangle;connectable=0;fillColor=none;top=0;left=0;bottom=0;right=0;align=left;spacingLeft=6;overflow=hidden;html=1;whiteSpace=wrap;" vertex="1" parent="m2vKKXtNSI7ji9uUZiZX-23">
          <mxGeometry x="60" width="130" height="30" as="geometry">
            <mxRectangle width="130" height="30" as="alternateBounds" />
          </mxGeometry>
        </mxCell>
        <mxCell id="m2vKKXtNSI7ji9uUZiZX-32" style="edgeStyle=orthogonalEdgeStyle;rounded=0;orthogonalLoop=1;jettySize=auto;html=1;entryX=0;entryY=0.5;entryDx=0;entryDy=0;startArrow=ERmandOne;startFill=0;endArrow=ERzeroToMany;endFill=0;" edge="1" parent="m2vKKXtNSI7ji9uUZiZX-1" source="m2vKKXtNSI7ji9uUZiZX-33" target="m2vKKXtNSI7ji9uUZiZX-17">
          <mxGeometry relative="1" as="geometry" />
        </mxCell>
        <mxCell id="NdSL9Rmww-Mmex19e4qj-1" style="edgeStyle=orthogonalEdgeStyle;rounded=0;orthogonalLoop=1;jettySize=auto;html=1;entryX=0;entryY=0.5;entryDx=0;entryDy=0;endArrow=ERzeroToMany;endFill=0;startArrow=ERmandOne;startFill=0;" edge="1" parent="m2vKKXtNSI7ji9uUZiZX-1" source="m2vKKXtNSI7ji9uUZiZX-33" target="m2vKKXtNSI7ji9uUZiZX-20">
          <mxGeometry relative="1" as="geometry" />
        </mxCell>
        <mxCell id="m2vKKXtNSI7ji9uUZiZX-33" value="Роль" style="shape=table;startSize=30;container=1;collapsible=1;childLayout=tableLayout;fixedRows=1;rowLines=0;fontStyle=1;align=center;resizeLast=1;html=1;" vertex="1" parent="m2vKKXtNSI7ji9uUZiZX-1">
          <mxGeometry x="40" y="130" width="170" height="90" as="geometry" />
        </mxCell>
        <mxCell id="m2vKKXtNSI7ji9uUZiZX-34" value="" style="shape=tableRow;horizontal=0;startSize=0;swimlaneHead=0;swimlaneBody=0;fillColor=none;collapsible=0;dropTarget=0;points=[[0,0.5],[1,0.5]];portConstraint=eastwest;top=0;left=0;right=0;bottom=1;" vertex="1" parent="m2vKKXtNSI7ji9uUZiZX-33">
          <mxGeometry y="30" width="170" height="30" as="geometry" />
        </mxCell>
        <mxCell id="m2vKKXtNSI7ji9uUZiZX-35" value="PK" style="shape=partialRectangle;connectable=0;fillColor=none;top=0;left=0;bottom=0;right=0;fontStyle=1;overflow=hidden;whiteSpace=wrap;html=1;" vertex="1" parent="m2vKKXtNSI7ji9uUZiZX-34">
          <mxGeometry width="30" height="30" as="geometry">
            <mxRectangle width="30" height="30" as="alternateBounds" />
          </mxGeometry>
        </mxCell>
        <mxCell id="m2vKKXtNSI7ji9uUZiZX-36" value="Наименование" style="shape=partialRectangle;connectable=0;fillColor=none;top=0;left=0;bottom=0;right=0;align=left;spacingLeft=6;fontStyle=5;overflow=hidden;whiteSpace=wrap;html=1;" vertex="1" parent="m2vKKXtNSI7ji9uUZiZX-34">
          <mxGeometry x="30" width="140" height="30" as="geometry">
            <mxRectangle width="140" height="30" as="alternateBounds" />
          </mxGeometry>
        </mxCell>
        <mxCell id="m2vKKXtNSI7ji9uUZiZX-37" value="" style="shape=tableRow;horizontal=0;startSize=0;swimlaneHead=0;swimlaneBody=0;fillColor=none;collapsible=0;dropTarget=0;points=[[0,0.5],[1,0.5]];portConstraint=eastwest;top=0;left=0;right=0;bottom=0;" vertex="1" parent="m2vKKXtNSI7ji9uUZiZX-33">
          <mxGeometry y="60" width="170" height="30" as="geometry" />
        </mxCell>
        <mxCell id="m2vKKXtNSI7ji9uUZiZX-38" value="" style="shape=partialRectangle;connectable=0;fillColor=none;top=0;left=0;bottom=0;right=0;editable=1;overflow=hidden;whiteSpace=wrap;html=1;" vertex="1" parent="m2vKKXtNSI7ji9uUZiZX-37">
          <mxGeometry width="30" height="30" as="geometry">
            <mxRectangle width="30" height="30" as="alternateBounds" />
          </mxGeometry>
        </mxCell>
        <mxCell id="m2vKKXtNSI7ji9uUZiZX-39" value=" Описание роли" style="shape=partialRectangle;connectable=0;fillColor=none;top=0;left=0;bottom=0;right=0;align=left;spacingLeft=6;overflow=hidden;whiteSpace=wrap;html=1;" vertex="1" parent="m2vKKXtNSI7ji9uUZiZX-37">
          <mxGeometry x="30" width="140" height="30" as="geometry">
            <mxRectangle width="140" height="30" as="alternateBounds" />
          </mxGeometry>
        </mxCell>
        <mxCell id="NdSL9Rmww-Mmex19e4qj-3" style="edgeStyle=orthogonalEdgeStyle;rounded=0;orthogonalLoop=1;jettySize=auto;html=1;endArrow=ERzeroToMany;endFill=0;startArrow=ERzeroToMany;startFill=0;" edge="1" parent="m2vKKXtNSI7ji9uUZiZX-1" source="m2vKKXtNSI7ji9uUZiZX-40" target="m2vKKXtNSI7ji9uUZiZX-10">
          <mxGeometry relative="1" as="geometry" />
        </mxCell>
        <mxCell id="m2vKKXtNSI7ji9uUZiZX-40" value="Броня" style="shape=table;startSize=30;container=1;collapsible=1;childLayout=tableLayout;fixedRows=1;rowLines=0;fontStyle=1;align=center;resizeLast=1;html=1;whiteSpace=wrap;" vertex="1" parent="m2vKKXtNSI7ji9uUZiZX-1">
          <mxGeometry x="670" y="130" width="180" height="60" as="geometry" />
        </mxCell>
        <mxCell id="m2vKKXtNSI7ji9uUZiZX-41" value="" style="shape=tableRow;horizontal=0;startSize=0;swimlaneHead=0;swimlaneBody=0;fillColor=none;collapsible=0;dropTarget=0;points=[[0,0.5],[1,0.5]];portConstraint=eastwest;top=0;left=0;right=0;bottom=1;html=1;" vertex="1" parent="m2vKKXtNSI7ji9uUZiZX-40">
          <mxGeometry y="30" width="180" height="30" as="geometry" />
        </mxCell>
        <mxCell id="m2vKKXtNSI7ji9uUZiZX-42" value="PK" style="shape=partialRectangle;connectable=0;fillColor=none;top=0;left=0;bottom=0;right=0;fontStyle=1;overflow=hidden;html=1;whiteSpace=wrap;" vertex="1" parent="m2vKKXtNSI7ji9uUZiZX-41">
          <mxGeometry width="60" height="30" as="geometry">
            <mxRectangle width="60" height="30" as="alternateBounds" />
          </mxGeometry>
        </mxCell>
        <mxCell id="m2vKKXtNSI7ji9uUZiZX-43" value="Название брони" style="shape=partialRectangle;connectable=0;fillColor=none;top=0;left=0;bottom=0;right=0;align=left;spacingLeft=6;fontStyle=5;overflow=hidden;html=1;whiteSpace=wrap;" vertex="1" parent="m2vKKXtNSI7ji9uUZiZX-41">
          <mxGeometry x="60" width="120" height="30" as="geometry">
            <mxRectangle width="120" height="30" as="alternateBounds" />
          </mxGeometry>
        </mxCell>
        <mxCell id="m2vKKXtNSI7ji9uUZiZX-44" value="Оружие" style="shape=table;startSize=30;container=1;collapsible=1;childLayout=tableLayout;fixedRows=1;rowLines=0;fontStyle=1;align=center;resizeLast=1;html=1;whiteSpace=wrap;" vertex="1" parent="m2vKKXtNSI7ji9uUZiZX-1">
          <mxGeometry x="670" y="240" width="180" height="60" as="geometry" />
        </mxCell>
        <mxCell id="m2vKKXtNSI7ji9uUZiZX-45" value="" style="shape=tableRow;horizontal=0;startSize=0;swimlaneHead=0;swimlaneBody=0;fillColor=none;collapsible=0;dropTarget=0;points=[[0,0.5],[1,0.5]];portConstraint=eastwest;top=0;left=0;right=0;bottom=1;html=1;" vertex="1" parent="m2vKKXtNSI7ji9uUZiZX-44">
          <mxGeometry y="30" width="180" height="30" as="geometry" />
        </mxCell>
        <mxCell id="m2vKKXtNSI7ji9uUZiZX-46" value="PK" style="shape=partialRectangle;connectable=0;fillColor=none;top=0;left=0;bottom=0;right=0;fontStyle=1;overflow=hidden;html=1;whiteSpace=wrap;" vertex="1" parent="m2vKKXtNSI7ji9uUZiZX-45">
          <mxGeometry width="60" height="30" as="geometry">
            <mxRectangle width="60" height="30" as="alternateBounds" />
          </mxGeometry>
        </mxCell>
        <mxCell id="m2vKKXtNSI7ji9uUZiZX-47" value="Название оружия" style="shape=partialRectangle;connectable=0;fillColor=none;top=0;left=0;bottom=0;right=0;align=left;spacingLeft=6;fontStyle=5;overflow=hidden;html=1;whiteSpace=wrap;" vertex="1" parent="m2vKKXtNSI7ji9uUZiZX-45">
          <mxGeometry x="60" width="120" height="30" as="geometry">
            <mxRectangle width="120" height="30" as="alternateBounds" />
          </mxGeometry>
        </mxCell>
        <mxCell id="m2vKKXtNSI7ji9uUZiZX-48" style="edgeStyle=orthogonalEdgeStyle;rounded=0;orthogonalLoop=1;jettySize=auto;html=1;entryX=0;entryY=0.5;entryDx=0;entryDy=0;startArrow=ERmandOne;startFill=0;" edge="1" parent="m2vKKXtNSI7ji9uUZiZX-1" source="m2vKKXtNSI7ji9uUZiZX-14">
          <mxGeometry relative="1" as="geometry" />
        </mxCell>
        <mxCell id="m2vKKXtNSI7ji9uUZiZX-49" style="edgeStyle=orthogonalEdgeStyle;rounded=0;orthogonalLoop=1;jettySize=auto;html=1;entryX=0;entryY=0.5;entryDx=0;entryDy=0;startArrow=ERzeroToMany;startFill=0;endArrow=ERzeroToMany;endFill=0;" edge="1" parent="m2vKKXtNSI7ji9uUZiZX-1" source="m2vKKXtNSI7ji9uUZiZX-26" target="m2vKKXtNSI7ji9uUZiZX-41">
          <mxGeometry relative="1" as="geometry" />
        </mxCell>
        <mxCell id="m2vKKXtNSI7ji9uUZiZX-50" style="edgeStyle=orthogonalEdgeStyle;rounded=0;orthogonalLoop=1;jettySize=auto;html=1;entryX=0;entryY=0.5;entryDx=0;entryDy=0;endArrow=ERzeroToMany;endFill=0;startArrow=ERzeroToMany;startFill=0;" edge="1" parent="m2vKKXtNSI7ji9uUZiZX-1" source="m2vKKXtNSI7ji9uUZiZX-29" target="m2vKKXtNSI7ji9uUZiZX-45">
          <mxGeometry relative="1" as="geometry" />
        </mxCell>
        <mxCell id="NdSL9Rmww-Mmex19e4qj-2" style="edgeStyle=orthogonalEdgeStyle;rounded=0;orthogonalLoop=1;jettySize=auto;html=1;endArrow=ERzeroToMany;endFill=0;startArrow=ERzeroToMany;startFill=0;" edge="1" parent="m2vKKXtNSI7ji9uUZiZX-1" source="m2vKKXtNSI7ji9uUZiZX-45" target="m2vKKXtNSI7ji9uUZiZX-10">
          <mxGeometry relative="1" as="geometry" />
        </mxCell>
        <mxCell id="NdSL9Rmww-Mmex19e4qj-5" value="Принадлежит" style="text;strokeColor=none;align=center;fillColor=none;html=1;verticalAlign=middle;whiteSpace=wrap;rounded=0;" vertex="1" parent="m2vKKXtNSI7ji9uUZiZX-1">
          <mxGeometry x="270" y="145" width="60" height="30" as="geometry" />
        </mxCell>
        <mxCell id="NdSL9Rmww-Mmex19e4qj-6" value="Играет" style="text;html=1;align=center;verticalAlign=middle;resizable=0;points=[];autosize=1;strokeColor=none;fillColor=none;" vertex="1" parent="m2vKKXtNSI7ji9uUZiZX-1">
          <mxGeometry x="300" y="50" width="60" height="30" as="geometry" />
        </mxCell>
        <mxCell id="NdSL9Rmww-Mmex19e4qj-7" value="Носит" style="text;html=1;align=center;verticalAlign=middle;resizable=0;points=[];autosize=1;strokeColor=none;fillColor=none;" vertex="1" parent="m2vKKXtNSI7ji9uUZiZX-1">
          <mxGeometry x="595" y="130" width="60" height="30" as="geometry" />
        </mxCell>
        <mxCell id="NdSL9Rmww-Mmex19e4qj-8" value="Использует" style="text;html=1;align=center;verticalAlign=middle;resizable=0;points=[];autosize=1;strokeColor=none;fillColor=none;" vertex="1" parent="m2vKKXtNSI7ji9uUZiZX-1">
          <mxGeometry x="530" y="255" width="90" height="30" as="geometry" />
        </mxCell>
      </root>
    </mxGraphModel>
  </diagram>
  <diagram name="Логичская модель" id="eodzrLhZeYmvwoBT6S1k">
    <mxGraphModel dx="1245" dy="767" grid="1" gridSize="10" guides="1" tooltips="1" connect="1" arrows="1" fold="1" page="1" pageScale="1" pageWidth="850" pageHeight="1100" math="0" shadow="0" extFonts="Permanent Marker^https://fonts.googleapis.com/css?family=Permanent+Marker">
      <root>
        <mxCell id="96Rvcx0a53rvGIMBkFIx-0" />
        <mxCell id="96Rvcx0a53rvGIMBkFIx-1" parent="96Rvcx0a53rvGIMBkFIx-0" />
        <mxCell id="96Rvcx0a53rvGIMBkFIx-2" style="edgeStyle=orthogonalEdgeStyle;rounded=0;orthogonalLoop=1;jettySize=auto;html=1;entryX=0;entryY=0.5;entryDx=0;entryDy=0;startArrow=ERmandOne;startFill=0;endArrow=ERzeroToMany;endFill=0;" edge="1" parent="96Rvcx0a53rvGIMBkFIx-1" source="96Rvcx0a53rvGIMBkFIx-4">
          <mxGeometry relative="1" as="geometry" />
        </mxCell>
        <mxCell id="EYauTbqT_kwIHke1tOiK-8" style="edgeStyle=orthogonalEdgeStyle;rounded=0;orthogonalLoop=1;jettySize=auto;html=1;entryX=0;entryY=0.5;entryDx=0;entryDy=0;endArrow=ERzeroToMany;endFill=0;startArrow=ERmandOne;startFill=0;dashed=1;dashPattern=8 8;" edge="1" parent="96Rvcx0a53rvGIMBkFIx-1" source="96Rvcx0a53rvGIMBkFIx-4" target="yqMuRnFCq1SUBjLyvda3-13">
          <mxGeometry relative="1" as="geometry" />
        </mxCell>
        <mxCell id="96Rvcx0a53rvGIMBkFIx-4" value="Игроки" style="shape=table;startSize=30;container=1;collapsible=1;childLayout=tableLayout;fixedRows=1;rowLines=0;fontStyle=1;align=center;resizeLast=1;html=1;" vertex="1" parent="96Rvcx0a53rvGIMBkFIx-1">
          <mxGeometry x="40" y="270" width="90" height="90" as="geometry" />
        </mxCell>
        <mxCell id="96Rvcx0a53rvGIMBkFIx-5" value="" style="shape=tableRow;horizontal=0;startSize=0;swimlaneHead=0;swimlaneBody=0;fillColor=none;collapsible=0;dropTarget=0;points=[[0,0.5],[1,0.5]];portConstraint=eastwest;top=0;left=0;right=0;bottom=1;" vertex="1" parent="96Rvcx0a53rvGIMBkFIx-4">
          <mxGeometry y="30" width="90" height="30" as="geometry" />
        </mxCell>
        <mxCell id="96Rvcx0a53rvGIMBkFIx-6" value="PK" style="shape=partialRectangle;connectable=0;fillColor=none;top=0;left=0;bottom=0;right=0;fontStyle=1;overflow=hidden;whiteSpace=wrap;html=1;" vertex="1" parent="96Rvcx0a53rvGIMBkFIx-5">
          <mxGeometry width="30" height="30" as="geometry">
            <mxRectangle width="30" height="30" as="alternateBounds" />
          </mxGeometry>
        </mxCell>
        <mxCell id="96Rvcx0a53rvGIMBkFIx-7" value="Логин" style="shape=partialRectangle;connectable=0;fillColor=none;top=0;left=0;bottom=0;right=0;align=left;spacingLeft=6;fontStyle=5;overflow=hidden;whiteSpace=wrap;html=1;" vertex="1" parent="96Rvcx0a53rvGIMBkFIx-5">
          <mxGeometry x="30" width="60" height="30" as="geometry">
            <mxRectangle width="60" height="30" as="alternateBounds" />
          </mxGeometry>
        </mxCell>
        <mxCell id="96Rvcx0a53rvGIMBkFIx-8" value="" style="shape=tableRow;horizontal=0;startSize=0;swimlaneHead=0;swimlaneBody=0;fillColor=none;collapsible=0;dropTarget=0;points=[[0,0.5],[1,0.5]];portConstraint=eastwest;top=0;left=0;right=0;bottom=0;" vertex="1" parent="96Rvcx0a53rvGIMBkFIx-4">
          <mxGeometry y="60" width="90" height="30" as="geometry" />
        </mxCell>
        <mxCell id="96Rvcx0a53rvGIMBkFIx-9" value="" style="shape=partialRectangle;connectable=0;fillColor=none;top=0;left=0;bottom=0;right=0;editable=1;overflow=hidden;whiteSpace=wrap;html=1;" vertex="1" parent="96Rvcx0a53rvGIMBkFIx-8">
          <mxGeometry width="30" height="30" as="geometry">
            <mxRectangle width="30" height="30" as="alternateBounds" />
          </mxGeometry>
        </mxCell>
        <mxCell id="96Rvcx0a53rvGIMBkFIx-10" value="Регион" style="shape=partialRectangle;connectable=0;fillColor=none;top=0;left=0;bottom=0;right=0;align=left;spacingLeft=6;overflow=hidden;whiteSpace=wrap;html=1;" vertex="1" parent="96Rvcx0a53rvGIMBkFIx-8">
          <mxGeometry x="30" width="60" height="30" as="geometry">
            <mxRectangle width="60" height="30" as="alternateBounds" />
          </mxGeometry>
        </mxCell>
        <mxCell id="96Rvcx0a53rvGIMBkFIx-21" style="edgeStyle=orthogonalEdgeStyle;rounded=0;orthogonalLoop=1;jettySize=auto;html=1;entryX=0;entryY=0.5;entryDx=0;entryDy=0;startArrow=ERmandOne;startFill=0;endArrow=ERzeroToMany;endFill=0;" edge="1" parent="96Rvcx0a53rvGIMBkFIx-1" source="96Rvcx0a53rvGIMBkFIx-23">
          <mxGeometry relative="1" as="geometry" />
        </mxCell>
        <mxCell id="96Rvcx0a53rvGIMBkFIx-23" value="Роли" style="shape=table;startSize=30;container=1;collapsible=1;childLayout=tableLayout;fixedRows=1;rowLines=0;fontStyle=1;align=center;resizeLast=1;html=1;" vertex="1" parent="96Rvcx0a53rvGIMBkFIx-1">
          <mxGeometry x="30" y="380" width="170" height="90" as="geometry" />
        </mxCell>
        <mxCell id="96Rvcx0a53rvGIMBkFIx-24" value="" style="shape=tableRow;horizontal=0;startSize=0;swimlaneHead=0;swimlaneBody=0;fillColor=none;collapsible=0;dropTarget=0;points=[[0,0.5],[1,0.5]];portConstraint=eastwest;top=0;left=0;right=0;bottom=1;" vertex="1" parent="96Rvcx0a53rvGIMBkFIx-23">
          <mxGeometry y="30" width="170" height="30" as="geometry" />
        </mxCell>
        <mxCell id="96Rvcx0a53rvGIMBkFIx-25" value="PK" style="shape=partialRectangle;connectable=0;fillColor=none;top=0;left=0;bottom=0;right=0;fontStyle=1;overflow=hidden;whiteSpace=wrap;html=1;" vertex="1" parent="96Rvcx0a53rvGIMBkFIx-24">
          <mxGeometry width="30" height="30" as="geometry">
            <mxRectangle width="30" height="30" as="alternateBounds" />
          </mxGeometry>
        </mxCell>
        <mxCell id="96Rvcx0a53rvGIMBkFIx-26" value="Наименование" style="shape=partialRectangle;connectable=0;fillColor=none;top=0;left=0;bottom=0;right=0;align=left;spacingLeft=6;fontStyle=5;overflow=hidden;whiteSpace=wrap;html=1;" vertex="1" parent="96Rvcx0a53rvGIMBkFIx-24">
          <mxGeometry x="30" width="140" height="30" as="geometry">
            <mxRectangle width="140" height="30" as="alternateBounds" />
          </mxGeometry>
        </mxCell>
        <mxCell id="96Rvcx0a53rvGIMBkFIx-27" value="" style="shape=tableRow;horizontal=0;startSize=0;swimlaneHead=0;swimlaneBody=0;fillColor=none;collapsible=0;dropTarget=0;points=[[0,0.5],[1,0.5]];portConstraint=eastwest;top=0;left=0;right=0;bottom=0;" vertex="1" parent="96Rvcx0a53rvGIMBkFIx-23">
          <mxGeometry y="60" width="170" height="30" as="geometry" />
        </mxCell>
        <mxCell id="96Rvcx0a53rvGIMBkFIx-28" value="" style="shape=partialRectangle;connectable=0;fillColor=none;top=0;left=0;bottom=0;right=0;editable=1;overflow=hidden;whiteSpace=wrap;html=1;" vertex="1" parent="96Rvcx0a53rvGIMBkFIx-27">
          <mxGeometry width="30" height="30" as="geometry">
            <mxRectangle width="30" height="30" as="alternateBounds" />
          </mxGeometry>
        </mxCell>
        <mxCell id="96Rvcx0a53rvGIMBkFIx-29" value=" Описание роли" style="shape=partialRectangle;connectable=0;fillColor=none;top=0;left=0;bottom=0;right=0;align=left;spacingLeft=6;overflow=hidden;whiteSpace=wrap;html=1;" vertex="1" parent="96Rvcx0a53rvGIMBkFIx-27">
          <mxGeometry x="30" width="140" height="30" as="geometry">
            <mxRectangle width="140" height="30" as="alternateBounds" />
          </mxGeometry>
        </mxCell>
        <mxCell id="96Rvcx0a53rvGIMBkFIx-31" value="Броня" style="shape=table;startSize=30;container=1;collapsible=1;childLayout=tableLayout;fixedRows=1;rowLines=0;fontStyle=1;align=center;resizeLast=1;html=1;whiteSpace=wrap;" vertex="1" parent="96Rvcx0a53rvGIMBkFIx-1">
          <mxGeometry x="850" y="260" width="180" height="60" as="geometry" />
        </mxCell>
        <mxCell id="96Rvcx0a53rvGIMBkFIx-32" value="" style="shape=tableRow;horizontal=0;startSize=0;swimlaneHead=0;swimlaneBody=0;fillColor=none;collapsible=0;dropTarget=0;points=[[0,0.5],[1,0.5]];portConstraint=eastwest;top=0;left=0;right=0;bottom=1;html=1;" vertex="1" parent="96Rvcx0a53rvGIMBkFIx-31">
          <mxGeometry y="30" width="180" height="30" as="geometry" />
        </mxCell>
        <mxCell id="96Rvcx0a53rvGIMBkFIx-33" value="PK" style="shape=partialRectangle;connectable=0;fillColor=none;top=0;left=0;bottom=0;right=0;fontStyle=1;overflow=hidden;html=1;whiteSpace=wrap;" vertex="1" parent="96Rvcx0a53rvGIMBkFIx-32">
          <mxGeometry width="60" height="30" as="geometry">
            <mxRectangle width="60" height="30" as="alternateBounds" />
          </mxGeometry>
        </mxCell>
        <mxCell id="96Rvcx0a53rvGIMBkFIx-34" value="Название брони" style="shape=partialRectangle;connectable=0;fillColor=none;top=0;left=0;bottom=0;right=0;align=left;spacingLeft=6;fontStyle=5;overflow=hidden;html=1;whiteSpace=wrap;" vertex="1" parent="96Rvcx0a53rvGIMBkFIx-32">
          <mxGeometry x="60" width="120" height="30" as="geometry">
            <mxRectangle width="120" height="30" as="alternateBounds" />
          </mxGeometry>
        </mxCell>
        <mxCell id="96Rvcx0a53rvGIMBkFIx-35" value="Оружие" style="shape=table;startSize=30;container=1;collapsible=1;childLayout=tableLayout;fixedRows=1;rowLines=0;fontStyle=1;align=center;resizeLast=1;html=1;whiteSpace=wrap;" vertex="1" parent="96Rvcx0a53rvGIMBkFIx-1">
          <mxGeometry x="860" y="370" width="180" height="60" as="geometry" />
        </mxCell>
        <mxCell id="96Rvcx0a53rvGIMBkFIx-36" value="" style="shape=tableRow;horizontal=0;startSize=0;swimlaneHead=0;swimlaneBody=0;fillColor=none;collapsible=0;dropTarget=0;points=[[0,0.5],[1,0.5]];portConstraint=eastwest;top=0;left=0;right=0;bottom=1;html=1;" vertex="1" parent="96Rvcx0a53rvGIMBkFIx-35">
          <mxGeometry y="30" width="180" height="30" as="geometry" />
        </mxCell>
        <mxCell id="96Rvcx0a53rvGIMBkFIx-37" value="PK" style="shape=partialRectangle;connectable=0;fillColor=none;top=0;left=0;bottom=0;right=0;fontStyle=1;overflow=hidden;html=1;whiteSpace=wrap;" vertex="1" parent="96Rvcx0a53rvGIMBkFIx-36">
          <mxGeometry width="60" height="30" as="geometry">
            <mxRectangle width="60" height="30" as="alternateBounds" />
          </mxGeometry>
        </mxCell>
        <mxCell id="96Rvcx0a53rvGIMBkFIx-38" value="Название оружия" style="shape=partialRectangle;connectable=0;fillColor=none;top=0;left=0;bottom=0;right=0;align=left;spacingLeft=6;fontStyle=5;overflow=hidden;html=1;whiteSpace=wrap;" vertex="1" parent="96Rvcx0a53rvGIMBkFIx-36">
          <mxGeometry x="60" width="120" height="30" as="geometry">
            <mxRectangle width="120" height="30" as="alternateBounds" />
          </mxGeometry>
        </mxCell>
        <mxCell id="96Rvcx0a53rvGIMBkFIx-40" style="edgeStyle=orthogonalEdgeStyle;rounded=0;orthogonalLoop=1;jettySize=auto;html=1;entryX=0;entryY=0.5;entryDx=0;entryDy=0;startArrow=ERzeroToMany;startFill=0;endArrow=ERzeroToMany;endFill=0;" edge="1" parent="96Rvcx0a53rvGIMBkFIx-1" target="96Rvcx0a53rvGIMBkFIx-32">
          <mxGeometry relative="1" as="geometry" />
        </mxCell>
        <mxCell id="96Rvcx0a53rvGIMBkFIx-41" style="edgeStyle=orthogonalEdgeStyle;rounded=0;orthogonalLoop=1;jettySize=auto;html=1;entryX=0;entryY=0.5;entryDx=0;entryDy=0;endArrow=ERzeroToMany;endFill=0;startArrow=ERzeroToMany;startFill=0;" edge="1" parent="96Rvcx0a53rvGIMBkFIx-1" target="96Rvcx0a53rvGIMBkFIx-36">
          <mxGeometry relative="1" as="geometry" />
        </mxCell>
        <mxCell id="yqMuRnFCq1SUBjLyvda3-9" value="Персонаж" style="shape=table;startSize=30;container=1;collapsible=1;childLayout=tableLayout;fixedRows=1;rowLines=0;fontStyle=1;align=center;resizeLast=1;html=1;whiteSpace=wrap;" vertex="1" parent="96Rvcx0a53rvGIMBkFIx-1">
          <mxGeometry x="300" y="270" width="190" height="180" as="geometry" />
        </mxCell>
        <mxCell id="yqMuRnFCq1SUBjLyvda3-13" value="" style="shape=tableRow;horizontal=0;startSize=0;swimlaneHead=0;swimlaneBody=0;fillColor=none;collapsible=0;dropTarget=0;points=[[0,0.5],[1,0.5]];portConstraint=eastwest;top=0;left=0;right=0;bottom=1;html=1;" vertex="1" parent="yqMuRnFCq1SUBjLyvda3-9">
          <mxGeometry y="30" width="190" height="30" as="geometry" />
        </mxCell>
        <mxCell id="yqMuRnFCq1SUBjLyvda3-14" value="PK" style="shape=partialRectangle;connectable=0;fillColor=none;top=0;left=0;bottom=0;right=0;fontStyle=1;overflow=hidden;html=1;whiteSpace=wrap;" vertex="1" parent="yqMuRnFCq1SUBjLyvda3-13">
          <mxGeometry width="60" height="30" as="geometry">
            <mxRectangle width="60" height="30" as="alternateBounds" />
          </mxGeometry>
        </mxCell>
        <mxCell id="yqMuRnFCq1SUBjLyvda3-15" value="Имя персонажа" style="shape=partialRectangle;connectable=0;fillColor=none;top=0;left=0;bottom=0;right=0;align=left;spacingLeft=6;fontStyle=5;overflow=hidden;html=1;whiteSpace=wrap;" vertex="1" parent="yqMuRnFCq1SUBjLyvda3-13">
          <mxGeometry x="60" width="130" height="30" as="geometry">
            <mxRectangle width="130" height="30" as="alternateBounds" />
          </mxGeometry>
        </mxCell>
        <mxCell id="EYauTbqT_kwIHke1tOiK-4" style="shape=tableRow;horizontal=0;startSize=0;swimlaneHead=0;swimlaneBody=0;fillColor=none;collapsible=0;dropTarget=0;points=[[0,0.5],[1,0.5]];portConstraint=eastwest;top=0;left=0;right=0;bottom=0;html=1;" vertex="1" parent="yqMuRnFCq1SUBjLyvda3-9">
          <mxGeometry y="60" width="190" height="30" as="geometry" />
        </mxCell>
        <mxCell id="EYauTbqT_kwIHke1tOiK-5" value="FK1" style="shape=partialRectangle;connectable=0;fillColor=none;top=0;left=0;bottom=0;right=0;editable=1;overflow=hidden;html=1;whiteSpace=wrap;" vertex="1" parent="EYauTbqT_kwIHke1tOiK-4">
          <mxGeometry width="60" height="30" as="geometry">
            <mxRectangle width="60" height="30" as="alternateBounds" />
          </mxGeometry>
        </mxCell>
        <mxCell id="EYauTbqT_kwIHke1tOiK-6" value="Наименование роли" style="shape=partialRectangle;connectable=0;fillColor=none;top=0;left=0;bottom=0;right=0;align=left;spacingLeft=6;overflow=hidden;html=1;whiteSpace=wrap;" vertex="1" parent="EYauTbqT_kwIHke1tOiK-4">
          <mxGeometry x="60" width="130" height="30" as="geometry">
            <mxRectangle width="130" height="30" as="alternateBounds" />
          </mxGeometry>
        </mxCell>
        <mxCell id="9pKcmD2g7kVXdAqb1iPc-0" style="shape=tableRow;horizontal=0;startSize=0;swimlaneHead=0;swimlaneBody=0;fillColor=none;collapsible=0;dropTarget=0;points=[[0,0.5],[1,0.5]];portConstraint=eastwest;top=0;left=0;right=0;bottom=0;html=1;" vertex="1" parent="yqMuRnFCq1SUBjLyvda3-9">
          <mxGeometry y="90" width="190" height="30" as="geometry" />
        </mxCell>
        <mxCell id="9pKcmD2g7kVXdAqb1iPc-1" value="FK2" style="shape=partialRectangle;connectable=0;fillColor=none;top=0;left=0;bottom=0;right=0;editable=1;overflow=hidden;html=1;whiteSpace=wrap;" vertex="1" parent="9pKcmD2g7kVXdAqb1iPc-0">
          <mxGeometry width="60" height="30" as="geometry">
            <mxRectangle width="60" height="30" as="alternateBounds" />
          </mxGeometry>
        </mxCell>
        <mxCell id="9pKcmD2g7kVXdAqb1iPc-2" value="Логин игрока" style="shape=partialRectangle;connectable=0;fillColor=none;top=0;left=0;bottom=0;right=0;align=left;spacingLeft=6;overflow=hidden;html=1;whiteSpace=wrap;" vertex="1" parent="9pKcmD2g7kVXdAqb1iPc-0">
          <mxGeometry x="60" width="130" height="30" as="geometry">
            <mxRectangle width="130" height="30" as="alternateBounds" />
          </mxGeometry>
        </mxCell>
        <mxCell id="yqMuRnFCq1SUBjLyvda3-16" value="" style="shape=tableRow;horizontal=0;startSize=0;swimlaneHead=0;swimlaneBody=0;fillColor=none;collapsible=0;dropTarget=0;points=[[0,0.5],[1,0.5]];portConstraint=eastwest;top=0;left=0;right=0;bottom=0;html=1;" vertex="1" parent="yqMuRnFCq1SUBjLyvda3-9">
          <mxGeometry y="120" width="190" height="30" as="geometry" />
        </mxCell>
        <mxCell id="yqMuRnFCq1SUBjLyvda3-17" value="" style="shape=partialRectangle;connectable=0;fillColor=none;top=0;left=0;bottom=0;right=0;editable=1;overflow=hidden;html=1;whiteSpace=wrap;" vertex="1" parent="yqMuRnFCq1SUBjLyvda3-16">
          <mxGeometry width="60" height="30" as="geometry">
            <mxRectangle width="60" height="30" as="alternateBounds" />
          </mxGeometry>
        </mxCell>
        <mxCell id="yqMuRnFCq1SUBjLyvda3-18" value="Здоровье" style="shape=partialRectangle;connectable=0;fillColor=none;top=0;left=0;bottom=0;right=0;align=left;spacingLeft=6;overflow=hidden;html=1;whiteSpace=wrap;" vertex="1" parent="yqMuRnFCq1SUBjLyvda3-16">
          <mxGeometry x="60" width="130" height="30" as="geometry">
            <mxRectangle width="130" height="30" as="alternateBounds" />
          </mxGeometry>
        </mxCell>
        <mxCell id="yqMuRnFCq1SUBjLyvda3-19" value="" style="shape=tableRow;horizontal=0;startSize=0;swimlaneHead=0;swimlaneBody=0;fillColor=none;collapsible=0;dropTarget=0;points=[[0,0.5],[1,0.5]];portConstraint=eastwest;top=0;left=0;right=0;bottom=0;html=1;" vertex="1" parent="yqMuRnFCq1SUBjLyvda3-9">
          <mxGeometry y="150" width="190" height="30" as="geometry" />
        </mxCell>
        <mxCell id="yqMuRnFCq1SUBjLyvda3-20" value="" style="shape=partialRectangle;connectable=0;fillColor=none;top=0;left=0;bottom=0;right=0;editable=1;overflow=hidden;html=1;whiteSpace=wrap;" vertex="1" parent="yqMuRnFCq1SUBjLyvda3-19">
          <mxGeometry width="60" height="30" as="geometry">
            <mxRectangle width="60" height="30" as="alternateBounds" />
          </mxGeometry>
        </mxCell>
        <mxCell id="yqMuRnFCq1SUBjLyvda3-21" value="Мана" style="shape=partialRectangle;connectable=0;fillColor=none;top=0;left=0;bottom=0;right=0;align=left;spacingLeft=6;overflow=hidden;html=1;whiteSpace=wrap;" vertex="1" parent="yqMuRnFCq1SUBjLyvda3-19">
          <mxGeometry x="60" width="130" height="30" as="geometry">
            <mxRectangle width="130" height="30" as="alternateBounds" />
          </mxGeometry>
        </mxCell>
        <mxCell id="6oxUO-4HMzF0-N3Gd2Kl-26" value="ОружиеПерсонажа" style="shape=table;startSize=30;container=1;collapsible=1;childLayout=tableLayout;fixedRows=1;rowLines=0;fontStyle=1;align=center;resizeLast=1;html=1;whiteSpace=wrap;" vertex="1" parent="96Rvcx0a53rvGIMBkFIx-1">
          <mxGeometry x="610" y="340" width="180" height="90" as="geometry" />
        </mxCell>
        <mxCell id="6oxUO-4HMzF0-N3Gd2Kl-27" value="" style="shape=tableRow;horizontal=0;startSize=0;swimlaneHead=0;swimlaneBody=0;fillColor=none;collapsible=0;dropTarget=0;points=[[0,0.5],[1,0.5]];portConstraint=eastwest;top=0;left=0;right=0;bottom=0;html=1;" vertex="1" parent="6oxUO-4HMzF0-N3Gd2Kl-26">
          <mxGeometry y="30" width="180" height="30" as="geometry" />
        </mxCell>
        <mxCell id="6oxUO-4HMzF0-N3Gd2Kl-28" value="PK,FK1" style="shape=partialRectangle;connectable=0;fillColor=none;top=0;left=0;bottom=0;right=0;fontStyle=1;overflow=hidden;html=1;whiteSpace=wrap;" vertex="1" parent="6oxUO-4HMzF0-N3Gd2Kl-27">
          <mxGeometry width="60" height="30" as="geometry">
            <mxRectangle width="60" height="30" as="alternateBounds" />
          </mxGeometry>
        </mxCell>
        <mxCell id="6oxUO-4HMzF0-N3Gd2Kl-29" value="Имя" style="shape=partialRectangle;connectable=0;fillColor=none;top=0;left=0;bottom=0;right=0;align=left;spacingLeft=6;fontStyle=5;overflow=hidden;html=1;whiteSpace=wrap;" vertex="1" parent="6oxUO-4HMzF0-N3Gd2Kl-27">
          <mxGeometry x="60" width="120" height="30" as="geometry">
            <mxRectangle width="120" height="30" as="alternateBounds" />
          </mxGeometry>
        </mxCell>
        <mxCell id="6oxUO-4HMzF0-N3Gd2Kl-30" value="" style="shape=tableRow;horizontal=0;startSize=0;swimlaneHead=0;swimlaneBody=0;fillColor=none;collapsible=0;dropTarget=0;points=[[0,0.5],[1,0.5]];portConstraint=eastwest;top=0;left=0;right=0;bottom=1;html=1;" vertex="1" parent="6oxUO-4HMzF0-N3Gd2Kl-26">
          <mxGeometry y="60" width="180" height="30" as="geometry" />
        </mxCell>
        <mxCell id="6oxUO-4HMzF0-N3Gd2Kl-31" value="PK,FK2" style="shape=partialRectangle;connectable=0;fillColor=none;top=0;left=0;bottom=0;right=0;fontStyle=1;overflow=hidden;html=1;whiteSpace=wrap;" vertex="1" parent="6oxUO-4HMzF0-N3Gd2Kl-30">
          <mxGeometry width="60" height="30" as="geometry">
            <mxRectangle width="60" height="30" as="alternateBounds" />
          </mxGeometry>
        </mxCell>
        <mxCell id="6oxUO-4HMzF0-N3Gd2Kl-32" value="Оружие" style="shape=partialRectangle;connectable=0;fillColor=none;top=0;left=0;bottom=0;right=0;align=left;spacingLeft=6;fontStyle=5;overflow=hidden;html=1;whiteSpace=wrap;" vertex="1" parent="6oxUO-4HMzF0-N3Gd2Kl-30">
          <mxGeometry x="60" width="120" height="30" as="geometry">
            <mxRectangle width="120" height="30" as="alternateBounds" />
          </mxGeometry>
        </mxCell>
        <mxCell id="6oxUO-4HMzF0-N3Gd2Kl-39" value="БроняПерсонажа" style="shape=table;startSize=30;container=1;collapsible=1;childLayout=tableLayout;fixedRows=1;rowLines=0;fontStyle=1;align=center;resizeLast=1;html=1;whiteSpace=wrap;" vertex="1" parent="96Rvcx0a53rvGIMBkFIx-1">
          <mxGeometry x="610" y="230" width="180" height="90" as="geometry" />
        </mxCell>
        <mxCell id="6oxUO-4HMzF0-N3Gd2Kl-40" value="" style="shape=tableRow;horizontal=0;startSize=0;swimlaneHead=0;swimlaneBody=0;fillColor=none;collapsible=0;dropTarget=0;points=[[0,0.5],[1,0.5]];portConstraint=eastwest;top=0;left=0;right=0;bottom=0;html=1;" vertex="1" parent="6oxUO-4HMzF0-N3Gd2Kl-39">
          <mxGeometry y="30" width="180" height="30" as="geometry" />
        </mxCell>
        <mxCell id="6oxUO-4HMzF0-N3Gd2Kl-41" value="PK,FK1" style="shape=partialRectangle;connectable=0;fillColor=none;top=0;left=0;bottom=0;right=0;fontStyle=1;overflow=hidden;html=1;whiteSpace=wrap;" vertex="1" parent="6oxUO-4HMzF0-N3Gd2Kl-40">
          <mxGeometry width="60" height="30" as="geometry">
            <mxRectangle width="60" height="30" as="alternateBounds" />
          </mxGeometry>
        </mxCell>
        <mxCell id="6oxUO-4HMzF0-N3Gd2Kl-42" value="Имя" style="shape=partialRectangle;connectable=0;fillColor=none;top=0;left=0;bottom=0;right=0;align=left;spacingLeft=6;fontStyle=5;overflow=hidden;html=1;whiteSpace=wrap;" vertex="1" parent="6oxUO-4HMzF0-N3Gd2Kl-40">
          <mxGeometry x="60" width="120" height="30" as="geometry">
            <mxRectangle width="120" height="30" as="alternateBounds" />
          </mxGeometry>
        </mxCell>
        <mxCell id="6oxUO-4HMzF0-N3Gd2Kl-43" value="" style="shape=tableRow;horizontal=0;startSize=0;swimlaneHead=0;swimlaneBody=0;fillColor=none;collapsible=0;dropTarget=0;points=[[0,0.5],[1,0.5]];portConstraint=eastwest;top=0;left=0;right=0;bottom=1;html=1;" vertex="1" parent="6oxUO-4HMzF0-N3Gd2Kl-39">
          <mxGeometry y="60" width="180" height="30" as="geometry" />
        </mxCell>
        <mxCell id="6oxUO-4HMzF0-N3Gd2Kl-44" value="PK,FK2" style="shape=partialRectangle;connectable=0;fillColor=none;top=0;left=0;bottom=0;right=0;fontStyle=1;overflow=hidden;html=1;whiteSpace=wrap;" vertex="1" parent="6oxUO-4HMzF0-N3Gd2Kl-43">
          <mxGeometry width="60" height="30" as="geometry">
            <mxRectangle width="60" height="30" as="alternateBounds" />
          </mxGeometry>
        </mxCell>
        <mxCell id="6oxUO-4HMzF0-N3Gd2Kl-45" value="Броня" style="shape=partialRectangle;connectable=0;fillColor=none;top=0;left=0;bottom=0;right=0;align=left;spacingLeft=6;fontStyle=5;overflow=hidden;html=1;whiteSpace=wrap;" vertex="1" parent="6oxUO-4HMzF0-N3Gd2Kl-43">
          <mxGeometry x="60" width="120" height="30" as="geometry">
            <mxRectangle width="120" height="30" as="alternateBounds" />
          </mxGeometry>
        </mxCell>
        <mxCell id="EYauTbqT_kwIHke1tOiK-0" style="edgeStyle=orthogonalEdgeStyle;rounded=0;orthogonalLoop=1;jettySize=auto;html=1;endArrow=ERmandOne;endFill=0;startArrow=ERzeroToMany;startFill=0;" edge="1" parent="96Rvcx0a53rvGIMBkFIx-1" source="6oxUO-4HMzF0-N3Gd2Kl-30" target="96Rvcx0a53rvGIMBkFIx-36">
          <mxGeometry relative="1" as="geometry" />
        </mxCell>
        <mxCell id="EYauTbqT_kwIHke1tOiK-1" style="edgeStyle=orthogonalEdgeStyle;rounded=0;orthogonalLoop=1;jettySize=auto;html=1;entryX=0;entryY=0.5;entryDx=0;entryDy=0;endArrow=ERmandOne;endFill=0;startArrow=ERzeroToMany;startFill=0;" edge="1" parent="96Rvcx0a53rvGIMBkFIx-1" source="6oxUO-4HMzF0-N3Gd2Kl-43" target="96Rvcx0a53rvGIMBkFIx-32">
          <mxGeometry relative="1" as="geometry" />
        </mxCell>
        <mxCell id="EYauTbqT_kwIHke1tOiK-2" style="edgeStyle=orthogonalEdgeStyle;rounded=0;orthogonalLoop=1;jettySize=auto;html=1;entryX=0;entryY=0.5;entryDx=0;entryDy=0;endArrow=ERzeroToMany;endFill=0;startArrow=ERmandOne;startFill=0;" edge="1" parent="96Rvcx0a53rvGIMBkFIx-1" source="yqMuRnFCq1SUBjLyvda3-10" target="6oxUO-4HMzF0-N3Gd2Kl-40">
          <mxGeometry relative="1" as="geometry" />
        </mxCell>
        <mxCell id="EYauTbqT_kwIHke1tOiK-3" style="edgeStyle=orthogonalEdgeStyle;rounded=0;orthogonalLoop=1;jettySize=auto;html=1;entryX=0;entryY=0.5;entryDx=0;entryDy=0;startArrow=ERmandOne;startFill=0;endArrow=ERzeroToMany;endFill=0;" edge="1" parent="96Rvcx0a53rvGIMBkFIx-1" source="yqMuRnFCq1SUBjLyvda3-10" target="6oxUO-4HMzF0-N3Gd2Kl-27">
          <mxGeometry relative="1" as="geometry" />
        </mxCell>
        <mxCell id="EYauTbqT_kwIHke1tOiK-7" style="edgeStyle=orthogonalEdgeStyle;rounded=0;orthogonalLoop=1;jettySize=auto;html=1;entryX=0;entryY=0.5;entryDx=0;entryDy=0;dashed=1;endArrow=ERzeroToMany;endFill=0;startArrow=ERmandOne;startFill=0;dashPattern=8 8;" edge="1" parent="96Rvcx0a53rvGIMBkFIx-1" source="96Rvcx0a53rvGIMBkFIx-24" target="EYauTbqT_kwIHke1tOiK-4">
          <mxGeometry relative="1" as="geometry" />
        </mxCell>
        <mxCell id="9pKcmD2g7kVXdAqb1iPc-3" style="edgeStyle=orthogonalEdgeStyle;rounded=0;orthogonalLoop=1;jettySize=auto;html=1;entryX=0;entryY=0.5;entryDx=0;entryDy=0;endArrow=ERzeroToMany;endFill=0;startArrow=ERmandOne;startFill=0;" edge="1" parent="96Rvcx0a53rvGIMBkFIx-1" source="yqMuRnFCq1SUBjLyvda3-13" target="6oxUO-4HMzF0-N3Gd2Kl-40">
          <mxGeometry relative="1" as="geometry" />
        </mxCell>
        <mxCell id="9pKcmD2g7kVXdAqb1iPc-4" style="edgeStyle=orthogonalEdgeStyle;rounded=0;orthogonalLoop=1;jettySize=auto;html=1;entryX=0;entryY=0.5;entryDx=0;entryDy=0;endArrow=ERzeroToMany;endFill=0;startArrow=ERmandOne;startFill=0;" edge="1" parent="96Rvcx0a53rvGIMBkFIx-1" source="yqMuRnFCq1SUBjLyvda3-13" target="6oxUO-4HMzF0-N3Gd2Kl-27">
          <mxGeometry relative="1" as="geometry" />
        </mxCell>
      </root>
    </mxGraphModel>
  </diagram>
  <diagram name="Физическая модель" id="ud5tgf5UVjkzEEuUSVxi">
    <mxGraphModel dx="1370" dy="844" grid="1" gridSize="10" guides="1" tooltips="1" connect="1" arrows="1" fold="1" page="1" pageScale="1" pageWidth="850" pageHeight="1100" math="0" shadow="0" extFonts="Permanent Marker^https://fonts.googleapis.com/css?family=Permanent+Marker">
      <root>
        <mxCell id="TSMkNNhNTiM4FmONDIC6-0" />
        <mxCell id="TSMkNNhNTiM4FmONDIC6-1" parent="TSMkNNhNTiM4FmONDIC6-0" />
        <mxCell id="TSMkNNhNTiM4FmONDIC6-2" style="edgeStyle=orthogonalEdgeStyle;rounded=0;orthogonalLoop=1;jettySize=auto;html=1;entryX=0;entryY=0.5;entryDx=0;entryDy=0;startArrow=ERmandOne;startFill=0;endArrow=ERzeroToMany;endFill=0;" edge="1" parent="TSMkNNhNTiM4FmONDIC6-1" source="TSMkNNhNTiM4FmONDIC6-4">
          <mxGeometry relative="1" as="geometry" />
        </mxCell>
        <mxCell id="TSMkNNhNTiM4FmONDIC6-3" style="edgeStyle=orthogonalEdgeStyle;rounded=0;orthogonalLoop=1;jettySize=auto;html=1;entryX=0;entryY=0.5;entryDx=0;entryDy=0;endArrow=ERzeroToMany;endFill=0;startArrow=ERmandOne;startFill=0;dashed=1;" edge="1" parent="TSMkNNhNTiM4FmONDIC6-1" source="TSMkNNhNTiM4FmONDIC6-4" target="Vk70tnl14Plm1I8PyH4j-7">
          <mxGeometry relative="1" as="geometry">
            <mxPoint x="300" y="345" as="targetPoint" />
          </mxGeometry>
        </mxCell>
        <mxCell id="TSMkNNhNTiM4FmONDIC6-4" value="Игроки" style="shape=table;startSize=30;container=1;collapsible=1;childLayout=tableLayout;fixedRows=1;rowLines=0;fontStyle=1;align=center;resizeLast=1;html=1;" vertex="1" parent="TSMkNNhNTiM4FmONDIC6-1">
          <mxGeometry x="40" y="330" width="180" height="90" as="geometry" />
        </mxCell>
        <mxCell id="TSMkNNhNTiM4FmONDIC6-5" value="" style="shape=tableRow;horizontal=0;startSize=0;swimlaneHead=0;swimlaneBody=0;fillColor=none;collapsible=0;dropTarget=0;points=[[0,0.5],[1,0.5]];portConstraint=eastwest;top=0;left=0;right=0;bottom=1;" vertex="1" parent="TSMkNNhNTiM4FmONDIC6-4">
          <mxGeometry y="30" width="180" height="30" as="geometry" />
        </mxCell>
        <mxCell id="TSMkNNhNTiM4FmONDIC6-6" value="PK" style="shape=partialRectangle;connectable=0;fillColor=none;top=0;left=0;bottom=0;right=0;fontStyle=1;overflow=hidden;whiteSpace=wrap;html=1;" vertex="1" parent="TSMkNNhNTiM4FmONDIC6-5">
          <mxGeometry width="30" height="30" as="geometry">
            <mxRectangle width="30" height="30" as="alternateBounds" />
          </mxGeometry>
        </mxCell>
        <mxCell id="TSMkNNhNTiM4FmONDIC6-7" value="Логин" style="shape=partialRectangle;connectable=0;fillColor=none;top=0;left=0;bottom=0;right=0;align=left;spacingLeft=6;fontStyle=5;overflow=hidden;whiteSpace=wrap;html=1;" vertex="1" parent="TSMkNNhNTiM4FmONDIC6-5">
          <mxGeometry x="30" width="60" height="30" as="geometry">
            <mxRectangle width="60" height="30" as="alternateBounds" />
          </mxGeometry>
        </mxCell>
        <mxCell id="BEDGcZKw8JNM-0B1ZM5s-0" value="varchar(20)" style="shape=partialRectangle;connectable=0;fillColor=none;top=0;left=0;bottom=0;right=0;align=left;spacingLeft=6;fontStyle=5;overflow=hidden;whiteSpace=wrap;html=1;" vertex="1" parent="TSMkNNhNTiM4FmONDIC6-5">
          <mxGeometry x="90" width="90" height="30" as="geometry">
            <mxRectangle width="90" height="30" as="alternateBounds" />
          </mxGeometry>
        </mxCell>
        <mxCell id="TSMkNNhNTiM4FmONDIC6-8" value="" style="shape=tableRow;horizontal=0;startSize=0;swimlaneHead=0;swimlaneBody=0;fillColor=none;collapsible=0;dropTarget=0;points=[[0,0.5],[1,0.5]];portConstraint=eastwest;top=0;left=0;right=0;bottom=0;" vertex="1" parent="TSMkNNhNTiM4FmONDIC6-4">
          <mxGeometry y="60" width="180" height="30" as="geometry" />
        </mxCell>
        <mxCell id="TSMkNNhNTiM4FmONDIC6-9" value="" style="shape=partialRectangle;connectable=0;fillColor=none;top=0;left=0;bottom=0;right=0;editable=1;overflow=hidden;whiteSpace=wrap;html=1;" vertex="1" parent="TSMkNNhNTiM4FmONDIC6-8">
          <mxGeometry width="30" height="30" as="geometry">
            <mxRectangle width="30" height="30" as="alternateBounds" />
          </mxGeometry>
        </mxCell>
        <mxCell id="TSMkNNhNTiM4FmONDIC6-10" value="Регион" style="shape=partialRectangle;connectable=0;fillColor=none;top=0;left=0;bottom=0;right=0;align=left;spacingLeft=6;overflow=hidden;whiteSpace=wrap;html=1;" vertex="1" parent="TSMkNNhNTiM4FmONDIC6-8">
          <mxGeometry x="30" width="60" height="30" as="geometry">
            <mxRectangle width="60" height="30" as="alternateBounds" />
          </mxGeometry>
        </mxCell>
        <mxCell id="BEDGcZKw8JNM-0B1ZM5s-1" value="varchar(20)" style="shape=partialRectangle;connectable=0;fillColor=none;top=0;left=0;bottom=0;right=0;align=left;spacingLeft=6;overflow=hidden;whiteSpace=wrap;html=1;" vertex="1" parent="TSMkNNhNTiM4FmONDIC6-8">
          <mxGeometry x="90" width="90" height="30" as="geometry">
            <mxRectangle width="90" height="30" as="alternateBounds" />
          </mxGeometry>
        </mxCell>
        <mxCell id="TSMkNNhNTiM4FmONDIC6-11" style="edgeStyle=orthogonalEdgeStyle;rounded=0;orthogonalLoop=1;jettySize=auto;html=1;entryX=0;entryY=0.5;entryDx=0;entryDy=0;startArrow=ERmandOne;startFill=0;endArrow=ERzeroToMany;endFill=0;" edge="1" parent="TSMkNNhNTiM4FmONDIC6-1" source="TSMkNNhNTiM4FmONDIC6-12">
          <mxGeometry relative="1" as="geometry" />
        </mxCell>
        <mxCell id="TSMkNNhNTiM4FmONDIC6-12" value="Роли" style="shape=table;startSize=30;container=1;collapsible=1;childLayout=tableLayout;fixedRows=1;rowLines=0;fontStyle=1;align=center;resizeLast=1;html=1;" vertex="1" parent="TSMkNNhNTiM4FmONDIC6-1">
          <mxGeometry x="20" y="235" width="250" height="90" as="geometry" />
        </mxCell>
        <mxCell id="TSMkNNhNTiM4FmONDIC6-13" value="" style="shape=tableRow;horizontal=0;startSize=0;swimlaneHead=0;swimlaneBody=0;fillColor=none;collapsible=0;dropTarget=0;points=[[0,0.5],[1,0.5]];portConstraint=eastwest;top=0;left=0;right=0;bottom=1;" vertex="1" parent="TSMkNNhNTiM4FmONDIC6-12">
          <mxGeometry y="30" width="250" height="30" as="geometry" />
        </mxCell>
        <mxCell id="TSMkNNhNTiM4FmONDIC6-14" value="PK" style="shape=partialRectangle;connectable=0;fillColor=none;top=0;left=0;bottom=0;right=0;fontStyle=1;overflow=hidden;whiteSpace=wrap;html=1;" vertex="1" parent="TSMkNNhNTiM4FmONDIC6-13">
          <mxGeometry width="30" height="30" as="geometry">
            <mxRectangle width="30" height="30" as="alternateBounds" />
          </mxGeometry>
        </mxCell>
        <mxCell id="TSMkNNhNTiM4FmONDIC6-15" value="Наименование" style="shape=partialRectangle;connectable=0;fillColor=none;top=0;left=0;bottom=0;right=0;align=left;spacingLeft=6;fontStyle=5;overflow=hidden;whiteSpace=wrap;html=1;" vertex="1" parent="TSMkNNhNTiM4FmONDIC6-13">
          <mxGeometry x="30" width="140" height="30" as="geometry">
            <mxRectangle width="140" height="30" as="alternateBounds" />
          </mxGeometry>
        </mxCell>
        <mxCell id="UoIklTdlMWhrtEzgxyrS-5" value="varchar(20)" style="shape=partialRectangle;connectable=0;fillColor=none;top=0;left=0;bottom=0;right=0;align=left;spacingLeft=6;fontStyle=5;overflow=hidden;whiteSpace=wrap;html=1;" vertex="1" parent="TSMkNNhNTiM4FmONDIC6-13">
          <mxGeometry x="170" width="80" height="30" as="geometry">
            <mxRectangle width="80" height="30" as="alternateBounds" />
          </mxGeometry>
        </mxCell>
        <mxCell id="TSMkNNhNTiM4FmONDIC6-16" value="" style="shape=tableRow;horizontal=0;startSize=0;swimlaneHead=0;swimlaneBody=0;fillColor=none;collapsible=0;dropTarget=0;points=[[0,0.5],[1,0.5]];portConstraint=eastwest;top=0;left=0;right=0;bottom=0;" vertex="1" parent="TSMkNNhNTiM4FmONDIC6-12">
          <mxGeometry y="60" width="250" height="30" as="geometry" />
        </mxCell>
        <mxCell id="TSMkNNhNTiM4FmONDIC6-17" value="" style="shape=partialRectangle;connectable=0;fillColor=none;top=0;left=0;bottom=0;right=0;editable=1;overflow=hidden;whiteSpace=wrap;html=1;" vertex="1" parent="TSMkNNhNTiM4FmONDIC6-16">
          <mxGeometry width="30" height="30" as="geometry">
            <mxRectangle width="30" height="30" as="alternateBounds" />
          </mxGeometry>
        </mxCell>
        <mxCell id="TSMkNNhNTiM4FmONDIC6-18" value=" Описание роли" style="shape=partialRectangle;connectable=0;fillColor=none;top=0;left=0;bottom=0;right=0;align=left;spacingLeft=6;overflow=hidden;whiteSpace=wrap;html=1;" vertex="1" parent="TSMkNNhNTiM4FmONDIC6-16">
          <mxGeometry x="30" width="140" height="30" as="geometry">
            <mxRectangle width="140" height="30" as="alternateBounds" />
          </mxGeometry>
        </mxCell>
        <mxCell id="UoIklTdlMWhrtEzgxyrS-6" value="varchar(100)" style="shape=partialRectangle;connectable=0;fillColor=none;top=0;left=0;bottom=0;right=0;align=left;spacingLeft=6;overflow=hidden;whiteSpace=wrap;html=1;" vertex="1" parent="TSMkNNhNTiM4FmONDIC6-16">
          <mxGeometry x="170" width="80" height="30" as="geometry">
            <mxRectangle width="80" height="30" as="alternateBounds" />
          </mxGeometry>
        </mxCell>
        <mxCell id="TSMkNNhNTiM4FmONDIC6-19" value="Броня" style="shape=table;startSize=30;container=1;collapsible=1;childLayout=tableLayout;fixedRows=1;rowLines=0;fontStyle=1;align=center;resizeLast=1;html=1;whiteSpace=wrap;" vertex="1" parent="TSMkNNhNTiM4FmONDIC6-1">
          <mxGeometry x="920" y="250" width="270" height="60" as="geometry" />
        </mxCell>
        <mxCell id="TSMkNNhNTiM4FmONDIC6-20" value="" style="shape=tableRow;horizontal=0;startSize=0;swimlaneHead=0;swimlaneBody=0;fillColor=none;collapsible=0;dropTarget=0;points=[[0,0.5],[1,0.5]];portConstraint=eastwest;top=0;left=0;right=0;bottom=1;html=1;" vertex="1" parent="TSMkNNhNTiM4FmONDIC6-19">
          <mxGeometry y="30" width="270" height="30" as="geometry" />
        </mxCell>
        <mxCell id="TSMkNNhNTiM4FmONDIC6-21" value="PK" style="shape=partialRectangle;connectable=0;fillColor=none;top=0;left=0;bottom=0;right=0;fontStyle=1;overflow=hidden;html=1;whiteSpace=wrap;" vertex="1" parent="TSMkNNhNTiM4FmONDIC6-20">
          <mxGeometry width="60" height="30" as="geometry">
            <mxRectangle width="60" height="30" as="alternateBounds" />
          </mxGeometry>
        </mxCell>
        <mxCell id="TSMkNNhNTiM4FmONDIC6-22" value="Название брони" style="shape=partialRectangle;connectable=0;fillColor=none;top=0;left=0;bottom=0;right=0;align=left;spacingLeft=6;fontStyle=5;overflow=hidden;html=1;whiteSpace=wrap;" vertex="1" parent="TSMkNNhNTiM4FmONDIC6-20">
          <mxGeometry x="60" width="120" height="30" as="geometry">
            <mxRectangle width="120" height="30" as="alternateBounds" />
          </mxGeometry>
        </mxCell>
        <mxCell id="UoIklTdlMWhrtEzgxyrS-11" value="varchar(40)" style="shape=partialRectangle;connectable=0;fillColor=none;top=0;left=0;bottom=0;right=0;align=left;spacingLeft=6;fontStyle=5;overflow=hidden;html=1;whiteSpace=wrap;" vertex="1" parent="TSMkNNhNTiM4FmONDIC6-20">
          <mxGeometry x="180" width="90" height="30" as="geometry">
            <mxRectangle width="90" height="30" as="alternateBounds" />
          </mxGeometry>
        </mxCell>
        <mxCell id="TSMkNNhNTiM4FmONDIC6-23" value="Оружие" style="shape=table;startSize=30;container=1;collapsible=1;childLayout=tableLayout;fixedRows=1;rowLines=0;fontStyle=1;align=center;resizeLast=1;html=1;whiteSpace=wrap;" vertex="1" parent="TSMkNNhNTiM4FmONDIC6-1">
          <mxGeometry x="920" y="360" width="270" height="60" as="geometry" />
        </mxCell>
        <mxCell id="TSMkNNhNTiM4FmONDIC6-24" value="" style="shape=tableRow;horizontal=0;startSize=0;swimlaneHead=0;swimlaneBody=0;fillColor=none;collapsible=0;dropTarget=0;points=[[0,0.5],[1,0.5]];portConstraint=eastwest;top=0;left=0;right=0;bottom=1;html=1;" vertex="1" parent="TSMkNNhNTiM4FmONDIC6-23">
          <mxGeometry y="30" width="270" height="30" as="geometry" />
        </mxCell>
        <mxCell id="TSMkNNhNTiM4FmONDIC6-25" value="PK" style="shape=partialRectangle;connectable=0;fillColor=none;top=0;left=0;bottom=0;right=0;fontStyle=1;overflow=hidden;html=1;whiteSpace=wrap;" vertex="1" parent="TSMkNNhNTiM4FmONDIC6-24">
          <mxGeometry width="60" height="30" as="geometry">
            <mxRectangle width="60" height="30" as="alternateBounds" />
          </mxGeometry>
        </mxCell>
        <mxCell id="TSMkNNhNTiM4FmONDIC6-26" value="Название оружия" style="shape=partialRectangle;connectable=0;fillColor=none;top=0;left=0;bottom=0;right=0;align=left;spacingLeft=6;fontStyle=5;overflow=hidden;html=1;whiteSpace=wrap;" vertex="1" parent="TSMkNNhNTiM4FmONDIC6-24">
          <mxGeometry x="60" width="120" height="30" as="geometry">
            <mxRectangle width="120" height="30" as="alternateBounds" />
          </mxGeometry>
        </mxCell>
        <mxCell id="UoIklTdlMWhrtEzgxyrS-12" value="varchar(40)" style="shape=partialRectangle;connectable=0;fillColor=none;top=0;left=0;bottom=0;right=0;align=left;spacingLeft=6;fontStyle=5;overflow=hidden;html=1;whiteSpace=wrap;" vertex="1" parent="TSMkNNhNTiM4FmONDIC6-24">
          <mxGeometry x="180" width="90" height="30" as="geometry">
            <mxRectangle width="90" height="30" as="alternateBounds" />
          </mxGeometry>
        </mxCell>
        <mxCell id="TSMkNNhNTiM4FmONDIC6-27" style="edgeStyle=orthogonalEdgeStyle;rounded=0;orthogonalLoop=1;jettySize=auto;html=1;entryX=0;entryY=0.5;entryDx=0;entryDy=0;startArrow=ERzeroToMany;startFill=0;endArrow=ERzeroToMany;endFill=0;" edge="1" parent="TSMkNNhNTiM4FmONDIC6-1" target="TSMkNNhNTiM4FmONDIC6-20">
          <mxGeometry relative="1" as="geometry" />
        </mxCell>
        <mxCell id="TSMkNNhNTiM4FmONDIC6-28" style="edgeStyle=orthogonalEdgeStyle;rounded=0;orthogonalLoop=1;jettySize=auto;html=1;entryX=0;entryY=0.5;entryDx=0;entryDy=0;endArrow=ERzeroToMany;endFill=0;startArrow=ERzeroToMany;startFill=0;" edge="1" parent="TSMkNNhNTiM4FmONDIC6-1" target="TSMkNNhNTiM4FmONDIC6-24">
          <mxGeometry relative="1" as="geometry" />
        </mxCell>
        <mxCell id="TSMkNNhNTiM4FmONDIC6-45" value="ОружиеПерсонажа" style="shape=table;startSize=30;container=1;collapsible=1;childLayout=tableLayout;fixedRows=1;rowLines=0;fontStyle=1;align=center;resizeLast=1;html=1;whiteSpace=wrap;" vertex="1" parent="TSMkNNhNTiM4FmONDIC6-1">
          <mxGeometry x="660" y="330" width="200" height="90" as="geometry" />
        </mxCell>
        <mxCell id="TSMkNNhNTiM4FmONDIC6-46" value="" style="shape=tableRow;horizontal=0;startSize=0;swimlaneHead=0;swimlaneBody=0;fillColor=none;collapsible=0;dropTarget=0;points=[[0,0.5],[1,0.5]];portConstraint=eastwest;top=0;left=0;right=0;bottom=0;html=1;" vertex="1" parent="TSMkNNhNTiM4FmONDIC6-45">
          <mxGeometry y="30" width="200" height="30" as="geometry" />
        </mxCell>
        <mxCell id="TSMkNNhNTiM4FmONDIC6-47" value="PK,FK1" style="shape=partialRectangle;connectable=0;fillColor=none;top=0;left=0;bottom=0;right=0;fontStyle=1;overflow=hidden;html=1;whiteSpace=wrap;" vertex="1" parent="TSMkNNhNTiM4FmONDIC6-46">
          <mxGeometry width="60" height="30" as="geometry">
            <mxRectangle width="60" height="30" as="alternateBounds" />
          </mxGeometry>
        </mxCell>
        <mxCell id="TSMkNNhNTiM4FmONDIC6-48" value="Имя" style="shape=partialRectangle;connectable=0;fillColor=none;top=0;left=0;bottom=0;right=0;align=left;spacingLeft=6;fontStyle=5;overflow=hidden;html=1;whiteSpace=wrap;" vertex="1" parent="TSMkNNhNTiM4FmONDIC6-46">
          <mxGeometry x="60" width="60" height="30" as="geometry">
            <mxRectangle width="60" height="30" as="alternateBounds" />
          </mxGeometry>
        </mxCell>
        <mxCell id="UoIklTdlMWhrtEzgxyrS-9" value="varchar(20)" style="shape=partialRectangle;connectable=0;fillColor=none;top=0;left=0;bottom=0;right=0;align=left;spacingLeft=6;fontStyle=5;overflow=hidden;html=1;whiteSpace=wrap;" vertex="1" parent="TSMkNNhNTiM4FmONDIC6-46">
          <mxGeometry x="120" width="80" height="30" as="geometry">
            <mxRectangle width="80" height="30" as="alternateBounds" />
          </mxGeometry>
        </mxCell>
        <mxCell id="TSMkNNhNTiM4FmONDIC6-49" value="" style="shape=tableRow;horizontal=0;startSize=0;swimlaneHead=0;swimlaneBody=0;fillColor=none;collapsible=0;dropTarget=0;points=[[0,0.5],[1,0.5]];portConstraint=eastwest;top=0;left=0;right=0;bottom=1;html=1;" vertex="1" parent="TSMkNNhNTiM4FmONDIC6-45">
          <mxGeometry y="60" width="200" height="30" as="geometry" />
        </mxCell>
        <mxCell id="TSMkNNhNTiM4FmONDIC6-50" value="PK,FK2" style="shape=partialRectangle;connectable=0;fillColor=none;top=0;left=0;bottom=0;right=0;fontStyle=1;overflow=hidden;html=1;whiteSpace=wrap;" vertex="1" parent="TSMkNNhNTiM4FmONDIC6-49">
          <mxGeometry width="60" height="30" as="geometry">
            <mxRectangle width="60" height="30" as="alternateBounds" />
          </mxGeometry>
        </mxCell>
        <mxCell id="TSMkNNhNTiM4FmONDIC6-51" value="Оружие" style="shape=partialRectangle;connectable=0;fillColor=none;top=0;left=0;bottom=0;right=0;align=left;spacingLeft=6;fontStyle=5;overflow=hidden;html=1;whiteSpace=wrap;" vertex="1" parent="TSMkNNhNTiM4FmONDIC6-49">
          <mxGeometry x="60" width="60" height="30" as="geometry">
            <mxRectangle width="60" height="30" as="alternateBounds" />
          </mxGeometry>
        </mxCell>
        <mxCell id="UoIklTdlMWhrtEzgxyrS-10" value="varchar(40)" style="shape=partialRectangle;connectable=0;fillColor=none;top=0;left=0;bottom=0;right=0;align=left;spacingLeft=6;fontStyle=5;overflow=hidden;html=1;whiteSpace=wrap;" vertex="1" parent="TSMkNNhNTiM4FmONDIC6-49">
          <mxGeometry x="120" width="80" height="30" as="geometry">
            <mxRectangle width="80" height="30" as="alternateBounds" />
          </mxGeometry>
        </mxCell>
        <mxCell id="TSMkNNhNTiM4FmONDIC6-52" value="БроняПерсонажа" style="shape=table;startSize=30;container=1;collapsible=1;childLayout=tableLayout;fixedRows=1;rowLines=0;fontStyle=1;align=center;resizeLast=1;html=1;whiteSpace=wrap;" vertex="1" parent="TSMkNNhNTiM4FmONDIC6-1">
          <mxGeometry x="660" y="220" width="190" height="90" as="geometry" />
        </mxCell>
        <mxCell id="TSMkNNhNTiM4FmONDIC6-53" value="" style="shape=tableRow;horizontal=0;startSize=0;swimlaneHead=0;swimlaneBody=0;fillColor=none;collapsible=0;dropTarget=0;points=[[0,0.5],[1,0.5]];portConstraint=eastwest;top=0;left=0;right=0;bottom=0;html=1;" vertex="1" parent="TSMkNNhNTiM4FmONDIC6-52">
          <mxGeometry y="30" width="190" height="30" as="geometry" />
        </mxCell>
        <mxCell id="TSMkNNhNTiM4FmONDIC6-54" value="PK,FK1" style="shape=partialRectangle;connectable=0;fillColor=none;top=0;left=0;bottom=0;right=0;fontStyle=1;overflow=hidden;html=1;whiteSpace=wrap;" vertex="1" parent="TSMkNNhNTiM4FmONDIC6-53">
          <mxGeometry width="60" height="30" as="geometry">
            <mxRectangle width="60" height="30" as="alternateBounds" />
          </mxGeometry>
        </mxCell>
        <mxCell id="TSMkNNhNTiM4FmONDIC6-55" value="Имя" style="shape=partialRectangle;connectable=0;fillColor=none;top=0;left=0;bottom=0;right=0;align=left;spacingLeft=6;fontStyle=5;overflow=hidden;html=1;whiteSpace=wrap;" vertex="1" parent="TSMkNNhNTiM4FmONDIC6-53">
          <mxGeometry x="60" width="50" height="30" as="geometry">
            <mxRectangle width="50" height="30" as="alternateBounds" />
          </mxGeometry>
        </mxCell>
        <mxCell id="UoIklTdlMWhrtEzgxyrS-7" value="varchar(20)" style="shape=partialRectangle;connectable=0;fillColor=none;top=0;left=0;bottom=0;right=0;align=left;spacingLeft=6;fontStyle=5;overflow=hidden;html=1;whiteSpace=wrap;" vertex="1" parent="TSMkNNhNTiM4FmONDIC6-53">
          <mxGeometry x="110" width="80" height="30" as="geometry">
            <mxRectangle width="80" height="30" as="alternateBounds" />
          </mxGeometry>
        </mxCell>
        <mxCell id="TSMkNNhNTiM4FmONDIC6-56" value="" style="shape=tableRow;horizontal=0;startSize=0;swimlaneHead=0;swimlaneBody=0;fillColor=none;collapsible=0;dropTarget=0;points=[[0,0.5],[1,0.5]];portConstraint=eastwest;top=0;left=0;right=0;bottom=1;html=1;" vertex="1" parent="TSMkNNhNTiM4FmONDIC6-52">
          <mxGeometry y="60" width="190" height="30" as="geometry" />
        </mxCell>
        <mxCell id="TSMkNNhNTiM4FmONDIC6-57" value="PK,FK2" style="shape=partialRectangle;connectable=0;fillColor=none;top=0;left=0;bottom=0;right=0;fontStyle=1;overflow=hidden;html=1;whiteSpace=wrap;" vertex="1" parent="TSMkNNhNTiM4FmONDIC6-56">
          <mxGeometry width="60" height="30" as="geometry">
            <mxRectangle width="60" height="30" as="alternateBounds" />
          </mxGeometry>
        </mxCell>
        <mxCell id="TSMkNNhNTiM4FmONDIC6-58" value="Броня" style="shape=partialRectangle;connectable=0;fillColor=none;top=0;left=0;bottom=0;right=0;align=left;spacingLeft=6;fontStyle=5;overflow=hidden;html=1;whiteSpace=wrap;" vertex="1" parent="TSMkNNhNTiM4FmONDIC6-56">
          <mxGeometry x="60" width="50" height="30" as="geometry">
            <mxRectangle width="50" height="30" as="alternateBounds" />
          </mxGeometry>
        </mxCell>
        <mxCell id="UoIklTdlMWhrtEzgxyrS-8" value="varchar(40)" style="shape=partialRectangle;connectable=0;fillColor=none;top=0;left=0;bottom=0;right=0;align=left;spacingLeft=6;fontStyle=5;overflow=hidden;html=1;whiteSpace=wrap;" vertex="1" parent="TSMkNNhNTiM4FmONDIC6-56">
          <mxGeometry x="110" width="80" height="30" as="geometry">
            <mxRectangle width="80" height="30" as="alternateBounds" />
          </mxGeometry>
        </mxCell>
        <mxCell id="TSMkNNhNTiM4FmONDIC6-59" style="edgeStyle=orthogonalEdgeStyle;rounded=0;orthogonalLoop=1;jettySize=auto;html=1;endArrow=ERmandOne;endFill=0;startArrow=ERzeroToMany;startFill=0;" edge="1" parent="TSMkNNhNTiM4FmONDIC6-1" source="TSMkNNhNTiM4FmONDIC6-49" target="TSMkNNhNTiM4FmONDIC6-24">
          <mxGeometry relative="1" as="geometry" />
        </mxCell>
        <mxCell id="TSMkNNhNTiM4FmONDIC6-60" style="edgeStyle=orthogonalEdgeStyle;rounded=0;orthogonalLoop=1;jettySize=auto;html=1;entryX=0;entryY=0.5;entryDx=0;entryDy=0;endArrow=ERmandOne;endFill=0;startArrow=ERzeroToMany;startFill=0;" edge="1" parent="TSMkNNhNTiM4FmONDIC6-1" source="TSMkNNhNTiM4FmONDIC6-56" target="TSMkNNhNTiM4FmONDIC6-20">
          <mxGeometry relative="1" as="geometry" />
        </mxCell>
        <mxCell id="TSMkNNhNTiM4FmONDIC6-61" style="edgeStyle=orthogonalEdgeStyle;rounded=0;orthogonalLoop=1;jettySize=auto;html=1;entryX=0;entryY=0.5;entryDx=0;entryDy=0;endArrow=ERzeroToMany;endFill=0;startArrow=ERmandOne;startFill=0;exitX=1;exitY=0.5;exitDx=0;exitDy=0;" edge="1" parent="TSMkNNhNTiM4FmONDIC6-1" source="Vk70tnl14Plm1I8PyH4j-1" target="TSMkNNhNTiM4FmONDIC6-53">
          <mxGeometry relative="1" as="geometry">
            <mxPoint x="560" y="315" as="sourcePoint" />
          </mxGeometry>
        </mxCell>
        <mxCell id="TSMkNNhNTiM4FmONDIC6-62" style="edgeStyle=orthogonalEdgeStyle;rounded=0;orthogonalLoop=1;jettySize=auto;html=1;entryX=0;entryY=0.5;entryDx=0;entryDy=0;startArrow=ERmandOne;startFill=0;endArrow=ERzeroToMany;endFill=0;exitX=1;exitY=0.5;exitDx=0;exitDy=0;" edge="1" parent="TSMkNNhNTiM4FmONDIC6-1" source="Vk70tnl14Plm1I8PyH4j-1" target="TSMkNNhNTiM4FmONDIC6-46">
          <mxGeometry relative="1" as="geometry">
            <mxPoint x="560" y="315" as="sourcePoint" />
          </mxGeometry>
        </mxCell>
        <mxCell id="TSMkNNhNTiM4FmONDIC6-63" style="edgeStyle=orthogonalEdgeStyle;rounded=0;orthogonalLoop=1;jettySize=auto;html=1;entryX=0;entryY=0.5;entryDx=0;entryDy=0;dashed=1;endArrow=ERzeroToMany;endFill=0;startArrow=ERmandOne;startFill=0;" edge="1" parent="TSMkNNhNTiM4FmONDIC6-1" source="TSMkNNhNTiM4FmONDIC6-13" target="Vk70tnl14Plm1I8PyH4j-4">
          <mxGeometry relative="1" as="geometry">
            <mxPoint x="300" y="375" as="targetPoint" />
          </mxGeometry>
        </mxCell>
        <mxCell id="Vk70tnl14Plm1I8PyH4j-0" value="Персонаж" style="shape=table;startSize=30;container=1;collapsible=1;childLayout=tableLayout;fixedRows=1;rowLines=0;fontStyle=1;align=center;resizeLast=1;html=1;whiteSpace=wrap;" vertex="1" parent="TSMkNNhNTiM4FmONDIC6-1">
          <mxGeometry x="320" y="270" width="270" height="180" as="geometry" />
        </mxCell>
        <mxCell id="Vk70tnl14Plm1I8PyH4j-1" value="" style="shape=tableRow;horizontal=0;startSize=0;swimlaneHead=0;swimlaneBody=0;fillColor=none;collapsible=0;dropTarget=0;points=[[0,0.5],[1,0.5]];portConstraint=eastwest;top=0;left=0;right=0;bottom=1;html=1;" vertex="1" parent="Vk70tnl14Plm1I8PyH4j-0">
          <mxGeometry y="30" width="270" height="30" as="geometry" />
        </mxCell>
        <mxCell id="Vk70tnl14Plm1I8PyH4j-2" value="PK" style="shape=partialRectangle;connectable=0;fillColor=none;top=0;left=0;bottom=0;right=0;fontStyle=1;overflow=hidden;html=1;whiteSpace=wrap;" vertex="1" parent="Vk70tnl14Plm1I8PyH4j-1">
          <mxGeometry width="60" height="30" as="geometry">
            <mxRectangle width="60" height="30" as="alternateBounds" />
          </mxGeometry>
        </mxCell>
        <mxCell id="Vk70tnl14Plm1I8PyH4j-3" value="Имя персонажа" style="shape=partialRectangle;connectable=0;fillColor=none;top=0;left=0;bottom=0;right=0;align=left;spacingLeft=6;fontStyle=5;overflow=hidden;html=1;whiteSpace=wrap;" vertex="1" parent="Vk70tnl14Plm1I8PyH4j-1">
          <mxGeometry x="60" width="130" height="30" as="geometry">
            <mxRectangle width="130" height="30" as="alternateBounds" />
          </mxGeometry>
        </mxCell>
        <mxCell id="UoIklTdlMWhrtEzgxyrS-0" value="varchar(20)" style="shape=partialRectangle;connectable=0;fillColor=none;top=0;left=0;bottom=0;right=0;align=left;spacingLeft=6;fontStyle=5;overflow=hidden;html=1;whiteSpace=wrap;" vertex="1" parent="Vk70tnl14Plm1I8PyH4j-1">
          <mxGeometry x="190" width="80" height="30" as="geometry">
            <mxRectangle width="80" height="30" as="alternateBounds" />
          </mxGeometry>
        </mxCell>
        <mxCell id="Vk70tnl14Plm1I8PyH4j-4" style="shape=tableRow;horizontal=0;startSize=0;swimlaneHead=0;swimlaneBody=0;fillColor=none;collapsible=0;dropTarget=0;points=[[0,0.5],[1,0.5]];portConstraint=eastwest;top=0;left=0;right=0;bottom=0;html=1;" vertex="1" parent="Vk70tnl14Plm1I8PyH4j-0">
          <mxGeometry y="60" width="270" height="30" as="geometry" />
        </mxCell>
        <mxCell id="Vk70tnl14Plm1I8PyH4j-5" value="FK1" style="shape=partialRectangle;connectable=0;fillColor=none;top=0;left=0;bottom=0;right=0;editable=1;overflow=hidden;html=1;whiteSpace=wrap;" vertex="1" parent="Vk70tnl14Plm1I8PyH4j-4">
          <mxGeometry width="60" height="30" as="geometry">
            <mxRectangle width="60" height="30" as="alternateBounds" />
          </mxGeometry>
        </mxCell>
        <mxCell id="Vk70tnl14Plm1I8PyH4j-6" value="Наименование роли" style="shape=partialRectangle;connectable=0;fillColor=none;top=0;left=0;bottom=0;right=0;align=left;spacingLeft=6;overflow=hidden;html=1;whiteSpace=wrap;" vertex="1" parent="Vk70tnl14Plm1I8PyH4j-4">
          <mxGeometry x="60" width="130" height="30" as="geometry">
            <mxRectangle width="130" height="30" as="alternateBounds" />
          </mxGeometry>
        </mxCell>
        <mxCell id="UoIklTdlMWhrtEzgxyrS-1" value="varchar(20)" style="shape=partialRectangle;connectable=0;fillColor=none;top=0;left=0;bottom=0;right=0;align=left;spacingLeft=6;overflow=hidden;html=1;whiteSpace=wrap;" vertex="1" parent="Vk70tnl14Plm1I8PyH4j-4">
          <mxGeometry x="190" width="80" height="30" as="geometry">
            <mxRectangle width="80" height="30" as="alternateBounds" />
          </mxGeometry>
        </mxCell>
        <mxCell id="Vk70tnl14Plm1I8PyH4j-7" style="shape=tableRow;horizontal=0;startSize=0;swimlaneHead=0;swimlaneBody=0;fillColor=none;collapsible=0;dropTarget=0;points=[[0,0.5],[1,0.5]];portConstraint=eastwest;top=0;left=0;right=0;bottom=0;html=1;" vertex="1" parent="Vk70tnl14Plm1I8PyH4j-0">
          <mxGeometry y="90" width="270" height="30" as="geometry" />
        </mxCell>
        <mxCell id="Vk70tnl14Plm1I8PyH4j-8" value="FK2" style="shape=partialRectangle;connectable=0;fillColor=none;top=0;left=0;bottom=0;right=0;editable=1;overflow=hidden;html=1;whiteSpace=wrap;" vertex="1" parent="Vk70tnl14Plm1I8PyH4j-7">
          <mxGeometry width="60" height="30" as="geometry">
            <mxRectangle width="60" height="30" as="alternateBounds" />
          </mxGeometry>
        </mxCell>
        <mxCell id="Vk70tnl14Plm1I8PyH4j-9" value="Логин игрока" style="shape=partialRectangle;connectable=0;fillColor=none;top=0;left=0;bottom=0;right=0;align=left;spacingLeft=6;overflow=hidden;html=1;whiteSpace=wrap;" vertex="1" parent="Vk70tnl14Plm1I8PyH4j-7">
          <mxGeometry x="60" width="130" height="30" as="geometry">
            <mxRectangle width="130" height="30" as="alternateBounds" />
          </mxGeometry>
        </mxCell>
        <mxCell id="UoIklTdlMWhrtEzgxyrS-2" value="varchar(20)" style="shape=partialRectangle;connectable=0;fillColor=none;top=0;left=0;bottom=0;right=0;align=left;spacingLeft=6;overflow=hidden;html=1;whiteSpace=wrap;" vertex="1" parent="Vk70tnl14Plm1I8PyH4j-7">
          <mxGeometry x="190" width="80" height="30" as="geometry">
            <mxRectangle width="80" height="30" as="alternateBounds" />
          </mxGeometry>
        </mxCell>
        <mxCell id="Vk70tnl14Plm1I8PyH4j-10" value="" style="shape=tableRow;horizontal=0;startSize=0;swimlaneHead=0;swimlaneBody=0;fillColor=none;collapsible=0;dropTarget=0;points=[[0,0.5],[1,0.5]];portConstraint=eastwest;top=0;left=0;right=0;bottom=0;html=1;" vertex="1" parent="Vk70tnl14Plm1I8PyH4j-0">
          <mxGeometry y="120" width="270" height="30" as="geometry" />
        </mxCell>
        <mxCell id="Vk70tnl14Plm1I8PyH4j-11" value="" style="shape=partialRectangle;connectable=0;fillColor=none;top=0;left=0;bottom=0;right=0;editable=1;overflow=hidden;html=1;whiteSpace=wrap;" vertex="1" parent="Vk70tnl14Plm1I8PyH4j-10">
          <mxGeometry width="60" height="30" as="geometry">
            <mxRectangle width="60" height="30" as="alternateBounds" />
          </mxGeometry>
        </mxCell>
        <mxCell id="Vk70tnl14Plm1I8PyH4j-12" value="Здоровье" style="shape=partialRectangle;connectable=0;fillColor=none;top=0;left=0;bottom=0;right=0;align=left;spacingLeft=6;overflow=hidden;html=1;whiteSpace=wrap;" vertex="1" parent="Vk70tnl14Plm1I8PyH4j-10">
          <mxGeometry x="60" width="130" height="30" as="geometry">
            <mxRectangle width="130" height="30" as="alternateBounds" />
          </mxGeometry>
        </mxCell>
        <mxCell id="UoIklTdlMWhrtEzgxyrS-3" value="smallint" style="shape=partialRectangle;connectable=0;fillColor=none;top=0;left=0;bottom=0;right=0;align=left;spacingLeft=6;overflow=hidden;html=1;whiteSpace=wrap;" vertex="1" parent="Vk70tnl14Plm1I8PyH4j-10">
          <mxGeometry x="190" width="80" height="30" as="geometry">
            <mxRectangle width="80" height="30" as="alternateBounds" />
          </mxGeometry>
        </mxCell>
        <mxCell id="Vk70tnl14Plm1I8PyH4j-13" value="" style="shape=tableRow;horizontal=0;startSize=0;swimlaneHead=0;swimlaneBody=0;fillColor=none;collapsible=0;dropTarget=0;points=[[0,0.5],[1,0.5]];portConstraint=eastwest;top=0;left=0;right=0;bottom=0;html=1;" vertex="1" parent="Vk70tnl14Plm1I8PyH4j-0">
          <mxGeometry y="150" width="270" height="30" as="geometry" />
        </mxCell>
        <mxCell id="Vk70tnl14Plm1I8PyH4j-14" value="" style="shape=partialRectangle;connectable=0;fillColor=none;top=0;left=0;bottom=0;right=0;editable=1;overflow=hidden;html=1;whiteSpace=wrap;" vertex="1" parent="Vk70tnl14Plm1I8PyH4j-13">
          <mxGeometry width="60" height="30" as="geometry">
            <mxRectangle width="60" height="30" as="alternateBounds" />
          </mxGeometry>
        </mxCell>
        <mxCell id="Vk70tnl14Plm1I8PyH4j-15" value="Мана" style="shape=partialRectangle;connectable=0;fillColor=none;top=0;left=0;bottom=0;right=0;align=left;spacingLeft=6;overflow=hidden;html=1;whiteSpace=wrap;" vertex="1" parent="Vk70tnl14Plm1I8PyH4j-13">
          <mxGeometry x="60" width="130" height="30" as="geometry">
            <mxRectangle width="130" height="30" as="alternateBounds" />
          </mxGeometry>
        </mxCell>
        <mxCell id="UoIklTdlMWhrtEzgxyrS-4" value="smallint" style="shape=partialRectangle;connectable=0;fillColor=none;top=0;left=0;bottom=0;right=0;align=left;spacingLeft=6;overflow=hidden;html=1;whiteSpace=wrap;" vertex="1" parent="Vk70tnl14Plm1I8PyH4j-13">
          <mxGeometry x="190" width="80" height="30" as="geometry">
            <mxRectangle width="80" height="30" as="alternateBounds" />
          </mxGeometry>
        </mxCell>
      </root>
    </mxGraphModel>
  </diagram>
  <diagram name="Концептуальная модель в нотации Питера Чена" id="MwUwexe8kV-4XptzTbtR">
    <mxGraphModel dx="1370" dy="844" grid="1" gridSize="10" guides="1" tooltips="1" connect="1" arrows="1" fold="1" page="1" pageScale="1" pageWidth="850" pageHeight="1100" math="0" shadow="0" extFonts="Permanent Marker^https://fonts.googleapis.com/css?family=Permanent+Marker">
      <root>
        <mxCell id="3nNR4jVNTBaKGzrk6QJt-0" />
        <mxCell id="3nNR4jVNTBaKGzrk6QJt-1" parent="3nNR4jVNTBaKGzrk6QJt-0" />
        <mxCell id="cpWxwkCmuK11tRaSm2TW-0" value="Игрок" style="whiteSpace=wrap;html=1;align=center;" vertex="1" parent="3nNR4jVNTBaKGzrk6QJt-1">
          <mxGeometry x="95" y="160" width="100" height="40" as="geometry" />
        </mxCell>
        <mxCell id="cpWxwkCmuK11tRaSm2TW-1" value="Роль" style="whiteSpace=wrap;html=1;align=center;" vertex="1" parent="3nNR4jVNTBaKGzrk6QJt-1">
          <mxGeometry x="95" y="210" width="100" height="40" as="geometry" />
        </mxCell>
        <mxCell id="cpWxwkCmuK11tRaSm2TW-2" value="Персонаж" style="whiteSpace=wrap;html=1;align=center;" vertex="1" parent="3nNR4jVNTBaKGzrk6QJt-1">
          <mxGeometry x="430" y="210" width="100" height="40" as="geometry" />
        </mxCell>
        <mxCell id="cpWxwkCmuK11tRaSm2TW-3" value="Броня" style="whiteSpace=wrap;html=1;align=center;" vertex="1" parent="3nNR4jVNTBaKGzrk6QJt-1">
          <mxGeometry x="695" y="210" width="100" height="40" as="geometry" />
        </mxCell>
        <mxCell id="cpWxwkCmuK11tRaSm2TW-4" value="Оружие" style="whiteSpace=wrap;html=1;align=center;" vertex="1" parent="3nNR4jVNTBaKGzrk6QJt-1">
          <mxGeometry x="695" y="310" width="100" height="40" as="geometry" />
        </mxCell>
        <mxCell id="cpWxwkCmuK11tRaSm2TW-10" style="edgeStyle=orthogonalEdgeStyle;rounded=0;orthogonalLoop=1;jettySize=auto;html=1;entryX=0.5;entryY=0;entryDx=0;entryDy=0;endArrow=none;endFill=0;" edge="1" parent="3nNR4jVNTBaKGzrk6QJt-1" source="cpWxwkCmuK11tRaSm2TW-5" target="cpWxwkCmuK11tRaSm2TW-2">
          <mxGeometry relative="1" as="geometry" />
        </mxCell>
        <mxCell id="cpWxwkCmuK11tRaSm2TW-11" style="edgeStyle=orthogonalEdgeStyle;rounded=0;orthogonalLoop=1;jettySize=auto;html=1;entryX=1;entryY=0.5;entryDx=0;entryDy=0;endArrow=none;endFill=0;shape=link;" edge="1" parent="3nNR4jVNTBaKGzrk6QJt-1" source="cpWxwkCmuK11tRaSm2TW-5" target="cpWxwkCmuK11tRaSm2TW-0">
          <mxGeometry relative="1" as="geometry" />
        </mxCell>
        <mxCell id="cpWxwkCmuK11tRaSm2TW-5" value="Играет" style="rhombus;whiteSpace=wrap;html=1;" vertex="1" parent="3nNR4jVNTBaKGzrk6QJt-1">
          <mxGeometry x="260" y="160" width="80" height="40" as="geometry" />
        </mxCell>
        <mxCell id="cpWxwkCmuK11tRaSm2TW-12" style="edgeStyle=orthogonalEdgeStyle;rounded=0;orthogonalLoop=1;jettySize=auto;html=1;entryX=1;entryY=0.5;entryDx=0;entryDy=0;shape=link;" edge="1" parent="3nNR4jVNTBaKGzrk6QJt-1" source="cpWxwkCmuK11tRaSm2TW-6" target="cpWxwkCmuK11tRaSm2TW-1">
          <mxGeometry relative="1" as="geometry" />
        </mxCell>
        <mxCell id="cpWxwkCmuK11tRaSm2TW-13" style="edgeStyle=orthogonalEdgeStyle;rounded=0;orthogonalLoop=1;jettySize=auto;html=1;entryX=0;entryY=0.5;entryDx=0;entryDy=0;endArrow=none;endFill=0;" edge="1" parent="3nNR4jVNTBaKGzrk6QJt-1" source="cpWxwkCmuK11tRaSm2TW-6" target="cpWxwkCmuK11tRaSm2TW-2">
          <mxGeometry relative="1" as="geometry" />
        </mxCell>
        <mxCell id="cpWxwkCmuK11tRaSm2TW-6" value="Принадлежит" style="rhombus;whiteSpace=wrap;html=1;" vertex="1" parent="3nNR4jVNTBaKGzrk6QJt-1">
          <mxGeometry x="260" y="210" width="110" height="40" as="geometry" />
        </mxCell>
        <mxCell id="cpWxwkCmuK11tRaSm2TW-16" style="edgeStyle=orthogonalEdgeStyle;rounded=0;orthogonalLoop=1;jettySize=auto;html=1;entryX=1;entryY=0.5;entryDx=0;entryDy=0;endArrow=none;endFill=0;" edge="1" parent="3nNR4jVNTBaKGzrk6QJt-1" source="cpWxwkCmuK11tRaSm2TW-7" target="cpWxwkCmuK11tRaSm2TW-2">
          <mxGeometry relative="1" as="geometry" />
        </mxCell>
        <mxCell id="cpWxwkCmuK11tRaSm2TW-17" style="edgeStyle=orthogonalEdgeStyle;rounded=0;orthogonalLoop=1;jettySize=auto;html=1;entryX=0;entryY=0.5;entryDx=0;entryDy=0;endArrow=none;endFill=0;" edge="1" parent="3nNR4jVNTBaKGzrk6QJt-1" source="cpWxwkCmuK11tRaSm2TW-7" target="cpWxwkCmuK11tRaSm2TW-3">
          <mxGeometry relative="1" as="geometry" />
        </mxCell>
        <mxCell id="cpWxwkCmuK11tRaSm2TW-7" value="Носит" style="rhombus;whiteSpace=wrap;html=1;" vertex="1" parent="3nNR4jVNTBaKGzrk6QJt-1">
          <mxGeometry x="580" y="210" width="80" height="40" as="geometry" />
        </mxCell>
        <mxCell id="cpWxwkCmuK11tRaSm2TW-14" style="edgeStyle=orthogonalEdgeStyle;rounded=0;orthogonalLoop=1;jettySize=auto;html=1;entryX=0.5;entryY=1;entryDx=0;entryDy=0;endArrow=none;endFill=0;" edge="1" parent="3nNR4jVNTBaKGzrk6QJt-1" source="cpWxwkCmuK11tRaSm2TW-8" target="cpWxwkCmuK11tRaSm2TW-2">
          <mxGeometry relative="1" as="geometry" />
        </mxCell>
        <mxCell id="cpWxwkCmuK11tRaSm2TW-15" style="edgeStyle=orthogonalEdgeStyle;rounded=0;orthogonalLoop=1;jettySize=auto;html=1;entryX=0;entryY=0.5;entryDx=0;entryDy=0;endArrow=none;endFill=0;" edge="1" parent="3nNR4jVNTBaKGzrk6QJt-1" source="cpWxwkCmuK11tRaSm2TW-8" target="cpWxwkCmuK11tRaSm2TW-4">
          <mxGeometry relative="1" as="geometry" />
        </mxCell>
        <mxCell id="cpWxwkCmuK11tRaSm2TW-8" value="Использует" style="rhombus;whiteSpace=wrap;html=1;" vertex="1" parent="3nNR4jVNTBaKGzrk6QJt-1">
          <mxGeometry x="580" y="310" width="80" height="40" as="geometry" />
        </mxCell>
        <mxCell id="cpWxwkCmuK11tRaSm2TW-19" value="1" style="text;html=1;align=center;verticalAlign=middle;resizable=0;points=[];autosize=1;strokeColor=none;fillColor=none;" vertex="1" parent="3nNR4jVNTBaKGzrk6QJt-1">
          <mxGeometry x="195" y="150" width="30" height="30" as="geometry" />
        </mxCell>
        <mxCell id="cpWxwkCmuK11tRaSm2TW-21" value="1" style="text;html=1;align=center;verticalAlign=middle;resizable=0;points=[];autosize=1;strokeColor=none;fillColor=none;" vertex="1" parent="3nNR4jVNTBaKGzrk6QJt-1">
          <mxGeometry x="200" y="198" width="30" height="30" as="geometry" />
        </mxCell>
        <mxCell id="cpWxwkCmuK11tRaSm2TW-22" value="N" style="text;html=1;align=center;verticalAlign=middle;resizable=0;points=[];autosize=1;strokeColor=none;fillColor=none;" vertex="1" parent="3nNR4jVNTBaKGzrk6QJt-1">
          <mxGeometry x="530" y="200" width="30" height="30" as="geometry" />
        </mxCell>
        <mxCell id="cpWxwkCmuK11tRaSm2TW-23" value="N" style="text;html=1;align=center;verticalAlign=middle;resizable=0;points=[];autosize=1;strokeColor=none;fillColor=none;" vertex="1" parent="3nNR4jVNTBaKGzrk6QJt-1">
          <mxGeometry x="665" y="198" width="30" height="30" as="geometry" />
        </mxCell>
        <mxCell id="cpWxwkCmuK11tRaSm2TW-24" value="N" style="text;html=1;align=center;verticalAlign=middle;resizable=0;points=[];autosize=1;strokeColor=none;fillColor=none;" vertex="1" parent="3nNR4jVNTBaKGzrk6QJt-1">
          <mxGeometry x="660" y="300" width="30" height="30" as="geometry" />
        </mxCell>
        <mxCell id="cpWxwkCmuK11tRaSm2TW-25" value="N" style="text;html=1;align=center;verticalAlign=middle;resizable=0;points=[];autosize=1;strokeColor=none;fillColor=none;" vertex="1" parent="3nNR4jVNTBaKGzrk6QJt-1">
          <mxGeometry x="475" y="250" width="30" height="30" as="geometry" />
        </mxCell>
        <mxCell id="cpWxwkCmuK11tRaSm2TW-26" value="N" style="text;html=1;align=center;verticalAlign=middle;resizable=0;points=[];autosize=1;strokeColor=none;fillColor=none;" vertex="1" parent="3nNR4jVNTBaKGzrk6QJt-1">
          <mxGeometry x="445" y="150" width="30" height="30" as="geometry" />
        </mxCell>
        <mxCell id="wrUguMM_4-bLqudEjOC0-0" value="N" style="text;html=1;align=center;verticalAlign=middle;resizable=0;points=[];autosize=1;strokeColor=none;fillColor=none;" vertex="1" parent="3nNR4jVNTBaKGzrk6QJt-1">
          <mxGeometry x="400" y="200" width="30" height="30" as="geometry" />
        </mxCell>
        <mxCell id="wrUguMM_4-bLqudEjOC0-2" style="rounded=0;orthogonalLoop=1;jettySize=auto;html=1;entryX=0.5;entryY=0;entryDx=0;entryDy=0;endArrow=none;endFill=0;" edge="1" parent="3nNR4jVNTBaKGzrk6QJt-1" source="wrUguMM_4-bLqudEjOC0-1" target="cpWxwkCmuK11tRaSm2TW-0">
          <mxGeometry relative="1" as="geometry" />
        </mxCell>
        <mxCell id="wrUguMM_4-bLqudEjOC0-1" value="&lt;u&gt;Логин&lt;/u&gt;" style="ellipse;whiteSpace=wrap;html=1;" vertex="1" parent="3nNR4jVNTBaKGzrk6QJt-1">
          <mxGeometry x="50" y="70" width="90" height="60" as="geometry" />
        </mxCell>
        <mxCell id="wrUguMM_4-bLqudEjOC0-4" style="rounded=0;orthogonalLoop=1;jettySize=auto;html=1;entryX=0.5;entryY=0;entryDx=0;entryDy=0;endArrow=none;endFill=0;" edge="1" parent="3nNR4jVNTBaKGzrk6QJt-1" source="wrUguMM_4-bLqudEjOC0-3" target="cpWxwkCmuK11tRaSm2TW-0">
          <mxGeometry relative="1" as="geometry" />
        </mxCell>
        <mxCell id="wrUguMM_4-bLqudEjOC0-3" value="Регион" style="ellipse;whiteSpace=wrap;html=1;" vertex="1" parent="3nNR4jVNTBaKGzrk6QJt-1">
          <mxGeometry x="150" y="70" width="90" height="60" as="geometry" />
        </mxCell>
        <mxCell id="wrUguMM_4-bLqudEjOC0-7" style="rounded=0;orthogonalLoop=1;jettySize=auto;html=1;entryX=0.5;entryY=1;entryDx=0;entryDy=0;endArrow=none;endFill=0;" edge="1" parent="3nNR4jVNTBaKGzrk6QJt-1" source="wrUguMM_4-bLqudEjOC0-5" target="cpWxwkCmuK11tRaSm2TW-1">
          <mxGeometry relative="1" as="geometry" />
        </mxCell>
        <mxCell id="wrUguMM_4-bLqudEjOC0-5" value="&lt;u&gt;Наименование&lt;/u&gt;" style="ellipse;whiteSpace=wrap;html=1;" vertex="1" parent="3nNR4jVNTBaKGzrk6QJt-1">
          <mxGeometry x="50" y="300" width="90" height="60" as="geometry" />
        </mxCell>
        <mxCell id="wrUguMM_4-bLqudEjOC0-8" style="rounded=0;orthogonalLoop=1;jettySize=auto;html=1;entryX=0.5;entryY=1;entryDx=0;entryDy=0;endArrow=none;endFill=0;" edge="1" parent="3nNR4jVNTBaKGzrk6QJt-1" source="wrUguMM_4-bLqudEjOC0-6" target="cpWxwkCmuK11tRaSm2TW-1">
          <mxGeometry relative="1" as="geometry" />
        </mxCell>
        <mxCell id="wrUguMM_4-bLqudEjOC0-6" value="Описание роли" style="ellipse;whiteSpace=wrap;html=1;" vertex="1" parent="3nNR4jVNTBaKGzrk6QJt-1">
          <mxGeometry x="150" y="300" width="90" height="60" as="geometry" />
        </mxCell>
        <mxCell id="wrUguMM_4-bLqudEjOC0-13" style="rounded=0;orthogonalLoop=1;jettySize=auto;html=1;entryX=1;entryY=0;entryDx=0;entryDy=0;endArrow=none;endFill=0;" edge="1" parent="3nNR4jVNTBaKGzrk6QJt-1" source="wrUguMM_4-bLqudEjOC0-10" target="cpWxwkCmuK11tRaSm2TW-2">
          <mxGeometry relative="1" as="geometry" />
        </mxCell>
        <mxCell id="wrUguMM_4-bLqudEjOC0-10" value="&lt;u&gt;Имя персонажа&lt;/u&gt;" style="ellipse;whiteSpace=wrap;html=1;" vertex="1" parent="3nNR4jVNTBaKGzrk6QJt-1">
          <mxGeometry x="420" y="70" width="90" height="60" as="geometry" />
        </mxCell>
        <mxCell id="wrUguMM_4-bLqudEjOC0-14" style="rounded=0;orthogonalLoop=1;jettySize=auto;html=1;entryX=1;entryY=0;entryDx=0;entryDy=0;endArrow=none;endFill=0;" edge="1" parent="3nNR4jVNTBaKGzrk6QJt-1" source="wrUguMM_4-bLqudEjOC0-11" target="cpWxwkCmuK11tRaSm2TW-2">
          <mxGeometry relative="1" as="geometry" />
        </mxCell>
        <mxCell id="wrUguMM_4-bLqudEjOC0-11" value="Здоровье" style="ellipse;whiteSpace=wrap;html=1;" vertex="1" parent="3nNR4jVNTBaKGzrk6QJt-1">
          <mxGeometry x="520" y="40" width="90" height="60" as="geometry" />
        </mxCell>
        <mxCell id="wrUguMM_4-bLqudEjOC0-15" style="rounded=0;orthogonalLoop=1;jettySize=auto;html=1;entryX=1;entryY=0;entryDx=0;entryDy=0;endArrow=none;endFill=0;" edge="1" parent="3nNR4jVNTBaKGzrk6QJt-1" source="wrUguMM_4-bLqudEjOC0-12" target="cpWxwkCmuK11tRaSm2TW-2">
          <mxGeometry relative="1" as="geometry" />
        </mxCell>
        <mxCell id="wrUguMM_4-bLqudEjOC0-12" value="Мана" style="ellipse;whiteSpace=wrap;html=1;" vertex="1" parent="3nNR4jVNTBaKGzrk6QJt-1">
          <mxGeometry x="590" y="100" width="90" height="60" as="geometry" />
        </mxCell>
        <mxCell id="wrUguMM_4-bLqudEjOC0-17" style="rounded=0;orthogonalLoop=1;jettySize=auto;html=1;entryX=0.5;entryY=0;entryDx=0;entryDy=0;endArrow=none;endFill=0;" edge="1" parent="3nNR4jVNTBaKGzrk6QJt-1" source="wrUguMM_4-bLqudEjOC0-16" target="cpWxwkCmuK11tRaSm2TW-3">
          <mxGeometry relative="1" as="geometry" />
        </mxCell>
        <mxCell id="wrUguMM_4-bLqudEjOC0-16" value="&lt;u&gt;Название брони&lt;/u&gt;" style="ellipse;whiteSpace=wrap;html=1;" vertex="1" parent="3nNR4jVNTBaKGzrk6QJt-1">
          <mxGeometry x="695" y="120" width="100" height="60" as="geometry" />
        </mxCell>
        <mxCell id="wrUguMM_4-bLqudEjOC0-19" style="rounded=0;orthogonalLoop=1;jettySize=auto;html=1;entryX=0.5;entryY=1;entryDx=0;entryDy=0;endArrow=none;endFill=0;" edge="1" parent="3nNR4jVNTBaKGzrk6QJt-1" source="wrUguMM_4-bLqudEjOC0-18" target="cpWxwkCmuK11tRaSm2TW-4">
          <mxGeometry relative="1" as="geometry" />
        </mxCell>
        <mxCell id="wrUguMM_4-bLqudEjOC0-18" value="&lt;u&gt;Название оружия&lt;/u&gt;" style="ellipse;whiteSpace=wrap;html=1;" vertex="1" parent="3nNR4jVNTBaKGzrk6QJt-1">
          <mxGeometry x="695" y="380" width="100" height="60" as="geometry" />
        </mxCell>
      </root>
    </mxGraphModel>
  </diagram>
</mxfile>
